<?xml version="1.0" encoding="UTF-8"?>
<svg width="169px" height="25px" viewBox="0 0 169 25" version="1.1" xmlns="http://www.w3.org/2000/svg" xmlns:xlink="http://www.w3.org/1999/xlink">
    <!-- Generator: Sketch 44.1 (41455) - http://www.bohemiancoding.com/sketch -->
    <title>eleven_labs</title>
    <desc>Created with Sketch.</desc>
    <defs>
        <polygon id="path-1" points="0 0.19664807 16.6263394 0.19664807 16.6263394 16.1251417 0 16.1251417"></polygon>
        <polygon id="path-3" points="0 0.131098713 22.8931905 0.131098713 22.8931905 23.5977683 0 23.5977683"></polygon>
    </defs>
    <g id="Page-1" stroke="none" stroke-width="1" fill="none" fill-rule="evenodd">
        <g id="Desktop-HD" transform="translate(-270.000000, -612.000000)">
            <g id="eleven_labs" transform="translate(270.000000, 612.406015)">
                <path d="M38.6882129,11.2903801 L42.7808503,11.2903801 C43.1645351,11.2903801 43.4203249,11.5525775 43.4203249,12.011423 C43.4203249,12.4702685 43.1645351,12.7324659 42.7808503,12.7324659 L38.6882129,12.7324659 L38.6882129,17.7797664 L43.4203249,17.7797664 C43.8040097,17.7797664 44.123747,18.1075131 44.123747,18.5663586 C44.123747,19.0252041 43.8040097,19.2874016 43.4842724,19.2874016 L37.856896,19.2874016 C37.4092637,19.2874016 37.0895264,18.9596548 37.0895264,18.5008093 L37.0895264,5.65313541 C37.0895264,5.19428992 37.4092637,4.86654313 37.856896,4.86654313 L43.4842724,4.86654313 C43.8679571,4.86654313 44.1876944,5.19428992 44.1876944,5.58758606 C44.1876944,6.04643155 43.8679571,6.37417833 43.5482198,6.37417833 L38.7521604,6.37417833 L38.7521604,11.2903801 L38.6882129,11.2903801 Z M52.4369167,18.5008093 C52.4369167,19.0252041 52.1811269,19.2874016 51.7974421,19.2874016 C51.4137573,19.2874016 51.1579675,19.0252041 51.1579675,18.5008093 L51.1579675,4.99764185 C51.1579675,4.473247 51.4137573,4.21104957 51.7974421,4.21104957 C52.1811269,4.21104957 52.4369167,4.53879635 52.4369167,4.99764185 L52.4369167,18.5008093 Z M65.6100933,12.3391698 C65.6100933,11.1592814 64.7148289,10.176041 63.6277221,10.176041 C62.5406153,10.176041 61.6453508,11.093732 61.6453508,12.3391698 L61.6453508,13.1913114 L65.6100933,13.1913114 L65.6100933,12.3391698 L65.6100933,12.3391698 Z M61.6453508,14.4367492 L61.6453508,15.7477363 C61.6453508,16.9931741 62.5406153,17.9108651 63.6916695,17.9108651 C64.4590391,17.9108651 64.9706187,17.5831183 65.3543035,17.3209209 C65.6100933,17.1898222 65.7379882,17.1242728 65.9937781,17.1242728 C66.3135154,17.1242728 66.6332527,17.4520196 66.6332527,17.7797664 C66.6332527,18.1730625 66.4414103,18.3697106 66.121673,18.5663586 C65.3946716,19.0378366 64.5519545,19.2878919 63.6916695,19.2874016 C61.6453508,19.2874016 60.1106118,17.7797664 60.1106118,15.7477363 L60.1106118,12.3391698 C60.1106118,10.2415904 61.8371932,8.79950452 63.6277221,8.79950452 C65.418251,8.79950452 67.1448324,10.2415904 67.1448324,12.3391698 L67.1448324,13.6501569 C67.1448324,14.1090024 66.8250951,14.4367492 66.3135154,14.4367492 L61.6453508,14.4367492 L61.6453508,14.4367492 Z M75.9056343,18.631908 L72.9001037,9.84829423 C72.8593951,9.74397897 72.8377198,9.63288784 72.8361562,9.52054745 C72.8361562,9.12725131 73.1558935,8.79950452 73.6035258,8.79950452 C73.9872105,8.79950452 74.2430003,8.99615259 74.3069478,9.32389938 L76.417214,16.1410325 L76.6730038,16.9931741 L76.9287936,16.1410325 L79.0390598,9.32389938 C79.1030073,8.99615259 79.3587971,8.79950452 79.6785344,8.79950452 C80.1901141,8.79950452 80.5098514,9.12725131 80.5098514,9.45499809 L80.5098514,9.84829423 L77.5043208,18.631908 C77.3764259,19.0252041 77.1845835,19.2874016 76.6730038,19.2874016 C76.1614241,19.2874016 75.9695817,19.0252041 75.8416868,18.631908 L75.9056343,18.631908 Z M92.4680263,12.3391698 C92.4680263,11.1592814 91.5088144,10.176041 90.4217076,10.176041 C89.8730217,10.1748692 89.3484024,10.4068582 88.9727299,10.8167855 C88.5970573,11.2267128 88.403936,11.7779098 88.4393363,12.3391698 L88.4393363,13.1913114 L92.4040788,13.1913114 L92.4040788,12.3391698 L92.4680263,12.3391698 Z M88.4393363,14.4367492 L88.4393363,15.7477363 C88.4393363,16.9931741 89.3346008,17.9108651 90.485655,17.9108651 C91.2530245,17.9108651 91.7646042,17.5831183 92.148289,17.3209209 C92.4040788,17.1898222 92.5319737,17.1242728 92.7877636,17.1242728 C93.1075009,17.1242728 93.4272382,17.4520196 93.4272382,17.7797664 C93.4272382,18.1730625 93.2353958,18.3697106 92.9156585,18.5663586 C92.1886571,19.0378366 91.34594,19.2878919 90.485655,19.2874016 C88.4393363,19.2874016 86.9045973,17.7797664 86.9045973,15.7477363 L86.9045973,12.3391698 C86.9045973,10.2415904 88.6311787,8.79950452 90.4217076,8.79950452 C92.2122364,8.79950452 93.9388178,10.2415904 93.9388178,12.3391698 L93.9388178,13.6501569 C93.9388178,14.1090024 93.6190805,14.4367492 93.1075009,14.4367492 L88.4393363,14.4367492 L88.4393363,14.4367492 Z M102.507777,18.5663586 C102.507777,19.0252041 102.18804,19.2874016 101.740408,19.2874016 C101.292776,19.2874016 100.973038,19.0252041 100.973038,18.5663586 L100.973038,9.45499809 C100.973038,9.12725131 101.228828,8.79950452 101.612513,8.79950452 C101.868303,8.79950452 102.060145,8.99615259 102.251988,9.25835002 C102.315935,9.38944873 102.44383,9.5860968 102.635672,9.5860968 L103.147252,9.38944873 C103.594884,9.06170195 104.170411,8.73395517 105.065676,8.73395517 C106.536467,8.73395517 108.007259,10.176041 108.007259,12.3391698 L108.007259,18.5008093 C108.007259,18.9596548 107.687522,19.2218522 107.239889,19.2218522 C106.792257,19.2218522 106.47252,18.9596548 106.47252,18.5008093 L106.47252,12.3391698 C106.47252,11.093732 105.641203,10.176041 104.490149,10.176041 C103.339094,10.176041 102.507777,11.093732 102.507777,12.3391698 L102.507777,18.5008093 L102.507777,18.5663586 Z M122.267542,19.2874016 C121.755963,19.2874016 121.436225,18.9596548 121.436225,18.5008093 L121.436225,5.65313541 C121.436225,5.19428992 121.755963,4.86654313 122.267542,4.86654313 C122.715175,4.86654313 123.098859,5.19428992 123.098859,5.65313541 L123.098859,17.7797664 L127.767024,17.7797664 C128.150709,17.7797664 128.470446,18.0419638 128.470446,18.5663586 C128.470446,19.0252041 128.150709,19.2874016 127.830971,19.2874016 L122.267542,19.2874016 L122.267542,19.2874016 Z M137.1673,14.4367492 C135.952299,14.4367492 135.120982,15.0922427 135.120982,16.1410325 C135.120982,17.2553715 135.952299,17.9108651 137.039405,17.9108651 C138.19046,17.9108651 139.085724,17.2553715 139.085724,16.0754831 L139.085724,14.4367492 L137.1673,14.4367492 Z M140.684411,18.631908 C140.684411,19.0252041 140.428621,19.2218522 140.044936,19.2218522 C139.789146,19.2218522 139.597304,19.0252041 139.405461,18.7630067 C139.277567,18.631908 139.213619,18.5008093 139.021777,18.5008093 C138.829934,18.5008093 138.638092,18.631908 138.44625,18.7630067 C137.998617,19.0252041 137.550985,19.2874016 136.847563,19.2874016 C134.993087,19.2874016 133.65019,17.9764144 133.65019,16.1410325 C133.65019,14.1745518 135.184929,13.1913114 137.231248,13.1913114 L139.149672,13.1913114 L139.149672,12.3391698 C139.149672,11.2248307 138.318355,10.176041 137.1673,10.176041 C136.527826,10.176041 136.080194,10.4382384 135.632561,10.6348865 L134.993087,10.8315346 C134.639915,10.8315346 134.353612,10.5380601 134.353612,10.176041 C134.353612,9.78274487 134.545455,9.52054745 134.865192,9.38944873 C135.440719,9.12725131 136.272036,8.79950452 137.1673,8.79950452 C139.085724,8.79950452 140.684411,10.3071397 140.684411,12.3391698 L140.684411,18.631908 Z M153.857587,12.2736204 C153.857587,11.0281826 152.962323,10.0449423 151.875216,10.0449423 C150.788109,10.0449423 149.892845,11.0281826 149.892845,12.2736204 L149.892845,15.682187 C149.892845,16.8620754 150.788109,17.8453157 151.875216,17.8453157 C153.02627,17.8453157 153.857587,16.796526 153.857587,15.682187 L153.857587,12.2736204 Z M148.358106,18.5663586 L148.358106,4.86654313 C148.358106,4.40769764 148.677843,4.14550021 149.125475,4.14550021 C149.573108,4.14550021 149.892845,4.40769764 149.892845,4.86654313 L149.892845,9.19280066 C149.892845,9.32389938 149.892845,9.45499809 150.02074,9.45499809 C150.148635,9.45499809 150.27653,9.38944873 150.340477,9.25835002 C150.852057,8.86505388 151.491531,8.60285646 152.194953,8.60285646 C154.04943,8.60285646 155.392326,10.0449423 155.392326,12.2080711 L155.392326,15.6166376 C155.392326,17.714217 153.985482,19.2218522 152.194953,19.2218522 C151.555479,19.2218522 150.916004,18.8941054 150.596267,18.631908 L150.02074,18.4352599 C149.892845,18.4352599 149.701002,18.5008093 149.637055,18.6974574 C149.445213,18.8941054 149.25337,19.0907535 148.99758,19.0907535 C148.677843,19.0907535 148.358106,18.8941054 148.358106,18.4352599 L148.358106,18.5663586 Z M163.321811,11.8803243 C163.321811,12.7324659 164.472866,13.0602127 165.36813,13.3879595 C166.647079,13.7157063 168.181818,14.3056505 168.181818,16.2065818 C168.181818,17.9764144 166.838922,19.2874016 164.792603,19.2874016 C163.897338,19.2874016 163.193916,19.0907535 162.426547,18.631908 C161.978915,18.5008093 161.787072,18.2386119 161.787072,17.9108651 C161.787072,17.4520196 162.170757,17.2553715 162.554442,17.2553715 C162.746284,17.2553715 162.938127,17.2553715 163.193916,17.4520196 C163.687758,17.7227292 164.233425,17.8793434 164.792603,17.9108651 C165.943657,17.9108651 166.647079,17.1242728 166.647079,16.2721312 C166.647079,15.3544402 165.687867,14.961144 164.60076,14.6333973 C163.513654,14.3056505 161.787072,13.6501569 161.787072,11.8803243 C161.787072,10.176041 163.385759,8.79950452 165.11234,8.79950452 C166.007605,8.79950452 166.774974,9.06170195 167.350501,9.32389938 C167.734186,9.52054745 167.926028,9.71719552 167.926028,10.1104917 C167.926028,10.4382384 167.606291,10.7659852 167.222606,10.7659852 L166.711027,10.6348865 C166.199447,10.3726891 165.815762,10.176041 165.11234,10.176041 C164.153128,10.176041 163.321811,10.9626333 163.321811,11.8803243 L163.321811,11.8803243 Z" id="Shape" fill="#BABABA" fill-rule="nonzero"></path>
                <g id="Group" transform="translate(8.952644, 2.113470)">
                    <g id="Clipped">
                        <mask id="mask-2" fill="white">
                            <use xlink:href="#path-1"></use>
                        </mask>
                        <g id="a"></g>
                        <path d="M9.72001383,7.21042922 C9.48070708,7.42024466 9.1280036,7.42024466 8.88869685,7.21042922 C8.64496567,6.9555448 8.64496567,6.54762264 8.88869685,6.29273822 L11.4465952,4.12960946 C11.685902,3.91979402 12.0386055,3.91979402 12.2779122,4.12960946 C12.4697546,4.45735624 12.4697546,4.78510302 12.2779122,5.04730045 L9.72001383,7.21042922 Z M9.65606637,11.405588 C9.65606637,10.9467425 9.9118562,10.5534464 10.295541,10.2256996 L11.3826478,9.24245927 C12.7894919,7.99702149 15.1555479,3.99851075 16.4984445,1.5076352 C16.9460767,0.852141635 16.2426547,-0.0655493565 15.5392326,0.19664807 C12.6224644,1.18471668 9.83155703,2.52710153 7.22606291,4.19515882 L6.01106118,5.24394852 C5.67299866,5.54156878 5.24168826,5.70445318 4.79605945,5.70279402 C1.02315935,5.63724466 0,7.21042922 0,7.21042922 L0.511579675,7.73482407 C0.511579675,7.73482407 2.74974075,7.40707728 3.96474248,8.91471248 L2.87763567,9.83240348 L3.51711027,10.5534464 L2.74974075,11.20894 L4.0926374,12.9132232 L4.28447978,12.7165752 L3.64500518,10.9467425 L5.24369167,12.7821245 L5.56342897,12.4543777 L5.11579675,10.487897 L6.39474594,11.8644335 C7.67369513,13.3720687 6.97027307,15.5351975 6.97027307,15.5351975 L7.41790529,16.1906911 C7.41790529,16.1906911 9.01659177,15.2074507 9.65606637,11.405588 Z" id="Shape" fill="#BABABA" fill-rule="nonzero" mask="url(#mask-2)"></path>
                    </g>
                </g>
                <g id="Group" transform="translate(0.000000, 0.146989)">
                    <g id="Clipped">
                        <mask id="mask-4" fill="white">
                            <use xlink:href="#path-3"></use>
                        </mask>
                        <g id="c"></g>
                        <path d="M12.0221224,22.5489786 C8.31316972,22.7456267 4.98790183,20.9757941 3.00553059,18.0916224 C2.87763567,17.9605237 3.00553059,17.7638756 3.19737297,17.8949743 C5.75527134,19.664807 9.72001383,19.2059615 12.3418597,14.2897597 C-0.767369513,18.026073 0.831316972,1.0487897 11.4465952,1.17988842 C15.1555479,1.24543777 18.3529208,3.14636911 20.2073972,6.16163951 C20.4306025,5.93216107 20.7838958,5.90430388 21.0387141,6.09609015 C21.1763613,6.22052449 21.255216,6.39958329 21.255216,6.58771033 C21.255216,6.77583736 21.1763613,6.95489616 21.0387141,7.0793305 L20.8468718,7.27597857 C21.5568999,8.7873292 21.9075275,10.4496046 21.8700311,12.126631 C21.7421362,17.6983263 17.393709,22.2867812 12.0221224,22.5489786 M11.3826478,0.131098713 C7.29317313,0.15451718 3.52653103,2.41251776 1.5015791,6.05453348 C-0.523372822,9.69654919 -0.498996188,14.1692712 1.56552656,17.7878684 C3.63004931,21.4064656 7.42106805,23.6211869 11.5105427,23.5977683 C17.8323226,23.5977682 22.9571377,18.3445753 22.9571377,11.8644335 C22.9571377,5.38429174 17.8323226,0.13109885 11.5105427,0.131098713" id="Shape" fill="#BABABA" fill-rule="nonzero" mask="url(#mask-4)"></path>
                    </g>
                </g>
            </g>
        </g>
    </g>
</svg>