<?xml version="1.0" encoding="UTF-8"?>
<svg width="114px" height="94px" viewBox="0 0 114 94" version="1.1" xmlns="http://www.w3.org/2000/svg" xmlns:xlink="http://www.w3.org/1999/xlink">
    <!-- Generator: Sketch 44.1 (41455) - http://www.bohemiancoding.com/sketch -->
    <title>eleven_labs</title>
    <desc>Created with Sketch.</desc>
    <defs>
        <polygon id="path-1" points="0 0.779487574 65.9046642 0.779487574 65.9046642 63.917981 0 63.917981"></polygon>
        <polygon id="path-3" points="0 0.519658382 90.745653 0.519658382 90.745653 93.5385088 0 93.5385088"></polygon>
    </defs>
    <g id="Page-1" stroke="none" stroke-width="1" fill="none" fill-rule="evenodd">
        <g id="Desktop-HD" transform="translate(-529.000000, -3183.000000)">
            <g id="eleven_labs" transform="translate(529.000000, 3183.110349)">
                <g id="Group" transform="translate(47.487127, 13.380840)">
                    <g id="Clipped">
                        <mask id="mask-2" fill="white">
                            <use xlink:href="#path-1"></use>
                        </mask>
                        <g id="a"></g>
                        <path d="M38.5288806,28.581211 C37.5802995,29.4128924 36.1822285,29.4128924 35.2336474,28.581211 C34.2675284,27.5708821 34.2675284,25.9539313 35.2336474,24.9436024 L45.3728265,16.369239 C46.3214076,15.5375577 47.7194786,15.5375577 48.6680597,16.369239 C49.4284982,17.668385 49.4284982,18.967531 48.6680597,20.0068477 L38.5288806,28.581211 Z M38.2754011,45.2102793 C38.2754011,43.3914749 39.289319,41.8324998 40.8101959,40.5333538 L45.119347,36.635916 C50.6958955,31.6991613 60.0746362,15.8495807 65.3977053,5.9760714 C67.1720616,3.37777949 64.3837873,-0.259829191 61.5955131,0.779487574 C50.0338201,4.69606406 38.9710235,10.0171044 28.643181,16.6290682 L23.8270709,20.7863353 C22.4870347,21.9660636 20.7773759,22.6117164 19.0109608,22.6051396 C4.05567164,22.3453104 0,28.581211 0,28.581211 L2.02783582,30.6598446 C2.02783582,30.6598446 10.8996175,29.3606986 15.7157276,35.33677 L11.4065765,38.9743787 L13.9413713,41.8324998 L10.8996175,44.4307917 L16.2226866,51.1863507 L16.983125,50.4068631 L14.4483302,43.3914749 L20.7853172,50.6666923 L22.0527146,49.3675463 L20.2783582,41.5726706 L25.3479478,47.0290836 C30.4175373,53.005155 27.6292631,61.5795183 27.6292631,61.5795183 L29.4036194,64.1778102 C29.4036194,64.1778102 35.7406064,60.2803724 38.2754011,45.2102793 Z" id="Shape" fill="#BABABA" fill-rule="nonzero" mask="url(#mask-2)"></path>
                    </g>
                </g>
                <g id="Group">
                    <g id="Clipped">
                        <mask id="mask-4" fill="white">
                            <use xlink:href="#path-3"></use>
                        </mask>
                        <g id="c"></g>
                        <path d="M47.6541418,89.3812418 C32.9523321,90.1607293 19.7713993,83.1453412 11.9135355,71.7128568 C11.4065765,71.1931984 11.9135355,70.4137108 12.6739739,70.9333692 C22.813153,77.9487574 38.5288806,76.129953 48.9215392,56.6427637 C-3.04175373,71.4530276 3.29523321,4.15726706 45.3728265,4.67692544 C60.0746362,4.93675463 72.7486101,12.4718012 80.099515,24.423944 C80.984272,23.514321 82.384681,23.4038987 83.3947482,24.1641148 C83.9403639,24.6573564 84.2529338,25.3671224 84.2529338,26.1128337 C84.2529338,26.858545 83.9403639,27.568311 83.3947482,28.0615526 L82.6343097,28.8410402 C85.4487698,34.8318391 86.8386124,41.4208843 86.6899814,48.0684004 C86.1830224,70.1538816 68.9464179,88.341925 47.6541418,89.3812418 M45.119347,0.519658382 C28.9091972,0.612486165 13.9787139,9.56290912 5.95206581,23.9993895 C-2.07458233,38.4358698 -1.9779565,56.1651628 6.20554529,70.5088151 C14.3890471,84.8524674 29.4161562,93.6313371 45.626306,93.5385088 C70.6850258,93.5385083 90.9991315,72.7155295 90.9991315,47.0290836 C90.9991315,21.3426377 70.6850258,0.519658924 45.626306,0.519658382" id="Shape" fill="#BABABA" fill-rule="nonzero" mask="url(#mask-4)"></path>
                    </g>
                </g>
            </g>
        </g>
    </g>
</svg>