<?xml version="1.0" encoding="UTF-8"?>
<svg width="40px" height="41px" viewBox="0 0 40 41" version="1.1" xmlns="http://www.w3.org/2000/svg" xmlns:xlink="http://www.w3.org/1999/xlink">
    <!-- Generator: Sketch 44.1 (41455) - http://www.bohemiancoding.com/sketch -->
    <title>social-1_round-github</title>
    <desc>Created with Sketch.</desc>
    <defs></defs>
    <g id="Page-1" stroke="none" stroke-width="1" fill="none" fill-rule="evenodd">
        <g id="Desktop-HD" transform="translate(-768.000000, -4268.000000)" fill-rule="nonzero" fill="#FFFFFF">
            <g id="social-1_round-github" transform="translate(768.000000, 4268.830164)">
                <path d="M20,0 C9,0 0,9.00597081 0,20.0132685 C0,31.0205661 9,40.0265369 20,40.0265369 C31,40.0265369 40,31.0205661 40,20.0132685 C40,9.00597081 31,0 20,0 Z M22.875,28.0185759 C22.875,28.0185759 21.5,28.1436588 20,28.1436588 C18.5,28.1436588 17.125,28.0185759 17.125,28.0185759 C13.625,27.6433271 10,26.2674149 10,20.2634343 C10,18.5122733 10.625,17.1363611 11.625,16.0106148 C11.5,15.635366 10.875,14.0092879 11.75,11.8828782 C11.75,11.8828782 13.125,11.5076294 16,13.5089562 C17.25,13.1337074 18.625,13.0086245 19.875,13.0086245 C21.25,13.0086245 22.5,13.1337074 23.75,13.5089562 C26.75,11.5076294 28,11.8828782 28,11.8828782 C28.875,14.0092879 28.375,15.635366 28.125,16.0106148 C29.125,17.1363611 29.75,18.5122733 29.75,20.2634343 C30,26.2674149 26.375,27.6433271 22.875,28.0185759 Z" id="Shape"></path>
            </g>
        </g>
    </g>
</svg>