<?xml version="1.0" encoding="UTF-8"?>
<svg width="50px" height="57px" viewBox="0 0 50 57" version="1.1" xmlns="http://www.w3.org/2000/svg" xmlns:xlink="http://www.w3.org/1999/xlink">
    <!-- Generator: Sketch 44.1 (41455) - http://www.bohemiancoding.com/sketch -->
    <title>graphql</title>
    <desc>Created with Sketch.</desc>
    <defs></defs>
    <g id="Page-1" stroke="none" stroke-width="1" fill="none" fill-rule="evenodd">
        <g id="Desktop-HD" transform="translate(-695.000000, -1737.000000)" fill="#FFFFFF">
            <g id="graphql" transform="translate(695.000000, 1737.151703)">
                <path d="M29.6840467,6.41372442 L41.1910506,13.0584075 C41.5232628,12.7068604 41.9045002,12.4051406 42.3229572,12.1625914 C44.7093385,10.7904595 47.7533074,11.6051385 49.1394942,13.9919709 C50.5114786,16.3788033 49.6968872,19.4229048 47.3103113,20.8092406 C46.8949703,21.0484506 46.4473941,21.2266877 45.981323,21.3384804 L45.981323,34.6327109 C46.4423033,34.7446914 46.8850035,34.9217119 47.2961089,35.1584484 C49.6968872,36.5447841 50.5114786,39.5890802 49.1252918,41.9759127 C47.7533074,44.3625505 44.6951362,45.1772295 42.3085603,43.8052922 C41.8462126,43.5400072 41.4297034,43.2018364 41.0750973,42.8038227 L29.6381323,49.4076453 C29.8056278,49.9148524 29.8906901,50.4456458 29.8900778,50.9797988 C29.8900778,53.723868 27.6608949,55.9678836 24.9027237,55.9678836 C22.1445525,55.9678836 19.9153696,53.7380719 19.9153696,50.9797988 C19.9153696,50.4894737 19.9857977,50.0158819 20.1171206,49.5685576 L8.61322957,42.9258202 C8.2846605,43.2703955 7.9087872,43.5665144 7.49688716,43.8052922 C5.09610895,45.1772295 2.05214008,44.3625505 0.680155642,41.9759127 C-0.691634241,39.5890802 0.122957198,36.5447841 2.50933852,35.1584484 C2.92044479,34.921668 3.36314194,34.7445832 3.82412451,34.6325163 L3.82412451,21.3384804 C3.35805336,21.2266877 2.91047717,21.0484506 2.49513619,20.8092406 C0.108560311,19.4373033 -0.706031128,16.3788033 0.665953307,13.9919709 C2.03793774,11.6051385 5.0959144,10.7904595 7.48249027,12.1625914 C7.89865593,12.4038459 8.27801574,12.7036314 8.60894942,13.0527649 L20.1192607,6.40633062 C19.983576,5.94575506 19.9149078,5.46804012 19.9153696,4.98789022 C19.9153696,2.22981166 22.1445525,0 24.9027237,0 C27.6608949,0 29.8900778,2.22961709 29.8900778,4.98789022 C29.8900778,5.48366336 29.8180934,5.96211945 29.6840467,6.41372442 Z M28.485214,8.46102619 L40.0196498,15.1212752 C39.6485598,16.4186019 39.8196501,17.8109929 40.4937743,18.9798611 C41.1959144,20.2013932 42.3396887,21.0112079 43.609144,21.326806 L43.609144,34.6375752 C43.544358,34.6533357 43.4799611,34.6706527 43.4159533,34.6889426 L28.3511673,8.594309 C28.3966926,8.55072454 28.4414397,8.5063618 28.485214,8.46122076 L28.485214,8.46102619 Z M21.457393,8.5972276 L6.39280156,34.6914721 C6.32766339,34.6726362 6.26215061,34.655121 6.1963035,34.6389373 L6.1963035,21.326806 C7.46575875,21.0112079 8.60953307,20.2013932 9.31167315,18.9798611 C9.98716876,17.8086976 10.1576076,16.4132247 9.78385214,15.1138814 L21.3149805,8.45557813 C21.3614786,8.50363777 21.4089494,8.55091912 21.457393,8.59703302 L21.457393,8.5972276 Z M26.2963035,9.77926127 L41.357393,35.8676686 C41.0123976,36.1968985 40.7166819,36.5741683 40.4793774,36.9878279 C40.2426664,37.3989775 40.0656649,37.8417253 39.9536965,38.3027552 L9.85214008,38.3027552 C9.740024,37.8417128 9.56289255,37.3989676 9.32607004,36.9878279 C9.0879385,36.5770203 8.79278483,36.2020444 8.44941634,35.8740895 L23.5134241,9.78042871 C23.9650505,9.91048539 24.4327479,9.97624912 24.9027237,9.97578044 C25.3865759,9.97578044 25.8540856,9.90729059 26.2963035,9.77926127 Z M28.5910506,47.6195154 L40.0505837,41.0024617 C40.0162326,40.8944385 39.9855407,40.7852854 39.9585603,40.6751892 L9.84571984,40.6751892 C9.82976654,40.7399822 9.81245136,40.8041914 9.79396887,40.8682061 L21.3095331,47.5177535 C22.2492113,46.5405406 23.5470952,45.9893954 24.9027237,45.9919085 C26.3067665,45.9894546 27.6464366,46.5806322 28.5910506,47.6195154 L28.5910506,47.6195154 Z" id="Shape"></path>
            </g>
        </g>
    </g>
</svg>