<?xml version="1.0" encoding="UTF-8"?>
<svg width="40px" height="41px" viewBox="0 0 40 41" version="1.1" xmlns="http://www.w3.org/2000/svg" xmlns:xlink="http://www.w3.org/1999/xlink">
    <!-- Generator: Sketch 44.1 (41455) - http://www.bohemiancoding.com/sketch -->
    <title>social-1_round-linkedin</title>
    <desc>Created with Sketch.</desc>
    <defs></defs>
    <g id="Page-1" stroke="none" stroke-width="1" fill="none" fill-rule="evenodd">
        <g id="Desktop-HD" transform="translate(-473.000000, -4268.000000)" fill-rule="nonzero" fill="#FFFFFF">
            <g id="social-1_round-linkedin" transform="translate(473.000000, 4268.830164)">
                <path d="M20,0 C9,0 0,9.00597081 0,20.0132685 C0,31.0205661 9,40.0265369 20,40.0265369 C31,40.0265369 40,31.0205661 40,20.0132685 C40,9.00597081 31,0 20,0 Z M14.5,30.0199027 L10.375,30.0199027 L10.375,16.6360294 L14.5,16.6360294 L14.5,30.0199027 L14.5,30.0199027 Z M12.375,14.8848684 C11.125,14.8848684 10,13.7591221 10,12.3832099 C10,11.1323806 11.125,10.0066342 12.375,10.0066342 C13.75,10.0066342 14.75,11.1323806 14.75,12.3832099 C14.75,13.7591221 13.75,14.8848684 12.375,14.8848684 Z M30,30.0199027 L25.875,30.0199027 L25.875,23.5155904 C25.875,22.0145953 25.875,20.0132685 23.75,20.0132685 C21.625,20.0132685 21.25,21.6393465 21.25,23.3905075 L21.25,30.0199027 L17.125,30.0199027 L17.125,16.6360294 L21.125,16.6360294 L21.125,18.5122733 L21.125,18.5122733 C21.625,17.5116099 23,16.3858636 25,16.3858636 C29.25,16.3858636 30,19.137688 30,22.7650929 L30,30.0199027 Z" id="Shape"></path>
            </g>
        </g>
    </g>
</svg>