<?xml version="1.0" encoding="UTF-8"?>
<svg width="47px" height="51px" viewBox="0 0 47 51" version="1.1" xmlns="http://www.w3.org/2000/svg" xmlns:xlink="http://www.w3.org/1999/xlink">
    <!-- Generator: Sketch 44.1 (41455) - http://www.bohemiancoding.com/sketch -->
    <title>nodejs-icon</title>
    <desc>Created with Sketch.</desc>
    <defs></defs>
    <g id="Page-1" stroke="none" stroke-width="1" fill="none" fill-rule="evenodd">
        <g id="Desktop-HD" transform="translate(-695.000000, -1426.000000)" fill-rule="nonzero" fill="#FFFFFF">
            <g id="nodejs-icon" transform="translate(695.000000, 1425.945378)">
                <path d="M21.0673399,0.64787634 C22.3262737,-0.0732932731 23.966034,-0.0765507519 25.2238828,0.64787634 C31.5520051,4.22639778 37.8821165,7.79930911 44.2091538,11.3800022 C45.3991916,12.0508619 46.1952023,13.3762938 46.1830868,14.7485972 L46.1830868,36.2783605 C46.1919474,37.7074888 45.317276,39.0645907 44.0617779,39.7202488 C37.754451,43.2790444 31.450379,46.8421833 25.1441371,50.4009788 C23.8591639,51.1362642 22.1864926,51.0796203 20.9416635,50.2840715 C19.0507313,49.1870251 17.1565441,48.0954077 15.2654309,46.9994471 C14.8789987,46.76889 14.4433808,46.5853853 14.1705094,46.2104133 C14.4117357,45.8850274 14.8430136,45.8444899 15.1934609,45.7024276 C15.9827809,45.4512398 16.7077257,45.0480363 17.4328513,44.6567769 C17.6162122,44.531183 17.8400789,44.5793213 18.015845,44.6917043 C19.6328209,45.6195429 21.2355112,46.5743461 22.8579119,47.4933171 C23.2040192,47.6932901 23.5544665,47.4278056 23.8503032,47.26276 C30.0397294,43.7618751 36.2367505,40.2742011 42.4250917,36.7722304 C42.6543833,36.6618381 42.7811447,36.4182511 42.7625192,36.1668823 C42.7668591,29.0646737 42.7636042,21.9611982 42.7646892,14.8589896 C42.7909094,14.5737792 42.6259931,14.3115522 42.3683113,14.1948258 C36.0828647,10.6523176 29.8006731,7.1043803 23.5163115,3.56096725 C23.2934453,3.40762921 22.9993106,3.4071978 22.7759962,3.55988142 C16.4916346,7.1043803 10.2105279,10.6555751 3.92616635,14.1979023 C3.6693887,14.3148096 3.49705835,14.5726934 3.52761851,14.8589896 C3.52870349,21.9611982 3.52761851,29.0646737 3.52761851,36.1679681 C3.50529996,36.4191667 3.64168042,36.6576946 3.86938594,36.7657155 C5.54639712,37.7174422 7.22557825,38.662473 8.9036744,39.6109422 C9.84905012,40.1201948 11.0097936,40.4227784 12.0513705,40.0326048 C12.970526,39.7026946 13.6148209,38.7639978 13.5972804,37.787297 C13.6059602,30.7265308 13.5929405,23.6646787 13.6037903,16.6049982 C13.5808249,16.2915564 13.8779275,16.0325868 14.1824441,16.0620851 C14.9882196,16.0566559 15.79508,16.0512268 16.6008555,16.0642567 C16.9371981,16.0566559 17.1686596,16.3941669 17.1270689,16.7099614 C17.1238139,23.8154275 17.1357487,30.9210746 17.121644,38.0265408 C17.1238139,39.9202218 16.3464287,41.9807581 14.5961816,42.9073298 C12.4399727,44.025188 9.7749101,43.7881159 7.64474063,42.7162244 C5.80064315,41.7950818 4.04081214,40.7079887 2.22944477,39.7211536 C0.970691827,39.0691149 0.100360276,37.7065839 0.109220913,36.2785414 L0.109220913,14.7485972 C0.0960203726,13.3478813 0.923676202,11.9983803 2.15078401,11.337293 C8.45702596,7.7756019 14.7621829,4.21119621 21.0673399,0.64787634 Z" id="Shape"></path>
                <path d="M26.5688913,15.5617001 C29.3193054,15.3845295 32.2637493,15.4567369 34.7387603,16.812753 C36.6550087,17.8518887 37.717381,20.0327708 37.7511961,22.1633429 C37.6976706,22.4507249 37.3974939,22.6092555 37.1233567,22.5895297 C36.3253569,22.5884438 35.5271762,22.6003879 34.7291764,22.5841005 C34.3906639,22.5971305 34.1939216,22.2847744 34.1514267,21.9852674 C33.9221351,20.9658575 33.3666274,19.95622 32.4078703,19.4645217 C30.9361004,18.7270647 29.2296141,18.7641637 27.6247538,18.7795463 C26.4531606,18.8418003 25.1933227,18.9433251 24.2007505,19.6328247 C23.4387357,20.1551072 23.2072742,21.2094445 23.4792415,22.0585606 C23.7356575,22.6682521 24.4389027,22.8649676 25.0143016,23.0463006 C28.3289032,23.9138758 31.841332,23.8275526 35.0926433,24.9692989 C36.4387368,25.4347564 37.755536,26.3396117 38.2162891,27.7501 C38.8189933,29.6405235 38.5548016,31.900128 37.2108781,33.4177512 C36.1210197,34.6666323 34.5336999,35.3463596 32.9505391,35.7155405 C30.84442,36.1855223 28.6587359,36.1974664 26.5198866,35.9888068 C24.5087028,35.7593355 22.4157842,35.2305381 20.8631836,33.8591395 C19.5355347,32.7054491 18.8870807,30.9078637 18.9514559,29.1728943 C18.9668264,28.8799022 19.2583233,28.6755859 19.5387896,28.6996551 C20.3423951,28.6931401 21.1460007,28.6909684 21.9496062,28.7007409 C22.2705782,28.6777576 22.5085496,28.9553671 22.5250051,29.2581317 C22.6732852,30.2294033 23.0380179,31.2488132 23.8842992,31.8246631 C25.5175496,32.8791813 27.5668884,32.8069739 29.4370253,32.8364722 C30.986371,32.7677032 32.7255874,32.7468915 33.9899461,31.7220525 C34.6570255,31.137516 34.8546719,30.1595485 34.6743851,29.3182141 C34.4790894,28.6079027 33.7366042,28.2769067 33.099,28.0604653 C29.8268933,27.0245871 26.2752245,27.4004639 23.034763,26.2290384 C21.7192296,25.7637618 20.4470953,24.8840616 19.9416773,23.531484 C19.236443,21.6171723 19.559585,19.2493471 21.0443746,17.7829387 C22.4920942,16.3243121 24.5819387,15.762578 26.5688913,15.5615192 L26.5688913,15.5617001 Z" id="Shape"></path>
            </g>
        </g>
    </g>
</svg>