<?xml version="1.0" encoding="UTF-8"?>
<svg width="51px" height="54px" viewBox="0 0 51 54" version="1.1" xmlns="http://www.w3.org/2000/svg" xmlns:xlink="http://www.w3.org/1999/xlink">
    <!-- Generator: Sketch 44.1 (41455) - http://www.bohemiancoding.com/sketch -->
    <title>postgresql</title>
    <desc>Created with Sketch.</desc>
    <defs></defs>
    <g id="Page-1" stroke="none" stroke-width="1" fill="none" fill-rule="evenodd">
        <g id="Desktop-HD" transform="translate(-1008.000000, -1740.000000)" fill-rule="nonzero" fill="#FFFFFF">
            <g id="postgresql" transform="translate(1008.000000, 1740.153693)">
                <path d="M21.3598213,15.7920245 C20.793472,15.7129849 20.2805878,15.7860913 20.0210815,15.9831605 C19.8752677,16.0939854 19.8300443,16.2223983 19.8177874,16.3107615 C19.7852435,16.5449137 19.9488086,16.8038584 20.0493989,16.9373569 C20.3338415,17.3153907 20.7493052,17.575183 21.1605424,17.6323967 C21.2201359,17.6408728 21.2795181,17.644687 21.3384776,17.644687 C22.0242251,17.644687 22.6478433,17.1092097 22.7027877,16.7140118 C22.7714681,16.2190078 22.0548672,15.8890758 21.3598213,15.7922364 M40.1220436,15.8077053 C40.0679445,15.4197121 39.3794498,15.309099 38.7260348,15.400217 C38.0734652,15.4913351 37.4407601,15.786727 37.4935911,16.1755678 C37.535856,16.4779525 38.0804389,16.9941467 38.7249782,16.9941467 C38.7794999,16.9941467 38.8344442,16.9905444 38.8898112,16.982704 C39.3200676,16.9229475 39.6357862,16.6489577 39.7858265,16.4910905 C40.0140568,16.2503694 40.1463459,15.982101 40.1220436,15.8077053" id="Shape"></path>
                <path d="M50.8873293,32.426361 C50.6476875,31.6997478 49.8763535,31.4660194 48.5948826,31.7313212 C44.7899874,32.5187504 43.4273679,31.9733137 42.9799943,31.6429579 C45.9374787,27.1251993 48.3704561,21.6640513 49.6829917,16.5688586 C50.304708,14.1552906 50.6481101,11.9137873 50.6762162,10.086765 C50.7072809,8.08153279 50.3666261,6.60796367 49.6641839,5.70780238 C46.8320148,2.07897421 42.6752645,0.132438985 37.6436314,0.079039586 C34.1844629,0.040049549 31.261847,0.9277086 30.6952864,1.1773296 C29.502149,0.879818663 28.2014476,0.697158815 26.785363,0.673849554 C24.1886092,0.631680981 21.9439219,1.25509777 20.0855354,2.52587631 C19.2782763,2.22455114 17.1920822,1.50641399 14.6407632,1.09426387 C10.2300011,0.382271885 6.72497521,0.921775333 4.22374005,2.69857675 C1.23920607,4.81887192 -0.138628782,8.60895781 0.128273888,13.963307 C0.218086743,15.7646891 1.24174196,21.30636 2.85710539,26.613455 C4.98345113,33.5986049 7.29491701,37.5529152 9.72683778,38.3664084 C10.0114917,38.4615526 10.3396784,38.5280899 10.7016771,38.5280899 C11.5888167,38.5280899 12.6765032,38.1271706 13.8081452,36.7629431 C15.1884237,35.1025932 16.6162331,33.48256 18.0897881,31.9048693 C19.0458195,32.4193682 20.0961016,32.7067078 21.1702634,32.7355266 C21.1723766,32.7637096 21.1751238,32.7918926 21.1776597,32.8198637 C20.9927563,33.0409588 20.8116945,33.265256 20.6345561,33.4926538 C19.8902717,34.4400693 19.7353709,34.6373504 17.3395866,35.1319305 C16.6580656,35.2730575 14.8480724,35.6470652 14.8214455,36.9193271 C14.7927054,38.3094066 16.9611047,38.8931977 17.2081429,38.9550732 C18.0690783,39.1712136 18.8985265,39.2778005 19.6895136,39.2778005 C21.6131992,39.2778005 23.3061187,38.6437886 24.6590173,37.4170857 C24.6173864,42.3726347 24.8234276,47.255713 25.4168264,48.7434796 C25.9028725,49.9614945 27.0900928,52.9380871 30.8402549,52.9378752 C31.3905435,52.9378752 31.9961992,52.8736688 32.6625049,52.7304228 C36.5764434,51.8891704 38.2761253,50.1545375 38.9335554,46.3303354 C39.2854104,44.2865369 39.8891641,39.4062133 40.1731841,36.7883714 C40.7725,36.975905 41.5440452,37.0617255 42.3781425,37.0615136 C44.1177646,37.0615136 46.1251348,36.6908963 47.383994,36.1049862 C48.7981766,35.4463937 51.3501296,33.8304261 50.8873293,32.426361 L50.8873293,32.426361 Z M41.5666569,14.7367507 C41.5537661,15.5095587 41.4476813,16.2111674 41.3352567,16.943502 C41.2141679,17.7311432 41.0890639,18.545484 41.0575765,19.5340086 C41.0265119,20.4960454 41.1463328,21.4962246 41.2621385,22.4635589 C41.4962859,24.4172988 41.7365617,26.4286762 40.8065232,28.4133538 C40.6520322,28.1388636 40.5144149,27.8551625 40.3944407,27.5638372 C40.2788463,27.2828546 40.0277929,26.8315026 39.6801643,26.2068144 C38.3278997,23.7750227 35.1612042,18.0803583 36.7822733,15.7566368 C37.2651495,15.0649875 38.4906195,14.3538431 41.5666569,14.7367507 L41.5666569,14.7367507 Z M37.8380499,1.64393863 C42.3464438,1.74374465 45.9127538,3.43493751 48.4376573,6.67026297 C50.3742337,9.15185169 48.2417596,20.4434936 42.068341,30.1848577 C42.0062575,30.1056993 41.9438458,30.0268003 41.8811076,29.9481627 L41.8029176,29.8502638 C43.3982052,27.2084769 43.0862904,24.5946611 42.8086102,22.2772967 C42.694495,21.3262789 42.5867196,20.4280247 42.6141918,19.5842294 C42.6425093,18.6900014 42.7604282,17.9229148 42.8745434,17.1812565 C43.0146515,16.2673216 43.1572954,15.3216013 43.1179891,14.2067829 C43.1473632,14.0898127 43.1591973,13.9516524 43.1437706,13.78764 C43.0433916,12.7185925 41.8261632,9.51907851 39.3452152,6.62322065 C37.9880902,5.03925039 36.0090375,3.26668702 33.3068329,2.07113382 C34.4691169,1.82956511 36.0584874,1.60431288 37.8380499,1.64393863 Z M12.61057,35.7644591 C11.3637563,37.2676946 10.5028208,36.9795073 10.2196462,36.8849989 C8.37478451,36.2679392 6.23406871,32.3579165 4.34673082,26.157653 C2.71361615,20.7927087 1.75927532,15.3978861 1.6836212,13.8851151 C1.44524732,9.10078322 2.60182556,5.76649934 5.12144594,3.97465286 C9.22198388,1.05887617 15.9636537,2.80410413 18.6726207,3.68922036 C18.633737,3.72778659 18.5931628,3.76380999 18.5547017,3.80301193 C14.1092824,8.30466599 14.2147333,15.9958746 14.2257222,16.466086 C14.2252995,16.6474744 14.2405149,16.9043001 14.2612246,17.2575414 C14.3377241,18.5512054 14.4801567,20.9588401 14.0997728,23.685388 C13.7464385,26.2191047 14.5253801,28.6989982 16.2364735,30.4893614 C16.4120802,30.67275 16.5966523,30.8472896 16.7895093,31.0123364 C16.0278963,31.8302796 14.3725926,33.6390783 12.61057,35.7644591 Z M17.3609304,29.4088712 C15.9818276,27.965816 15.3554622,25.9586767 15.6422294,23.9015284 C16.0437456,21.0213513 15.8956073,18.512851 15.815938,17.1651519 C15.8047378,16.9765588 15.7948055,16.811275 15.7890998,16.680955 C16.4384996,16.103521 19.4479698,14.4867059 21.59418,14.9798027 C22.5734571,15.2046311 23.1702371,15.873395 23.4183319,17.0236011 C24.7023388,22.9786936 23.5882367,25.4607061 22.6930667,27.4553432 C22.5085806,27.8662219 22.334238,28.2546389 22.1854656,28.6564058 L22.0700825,28.9670547 C21.7780322,29.7523649 21.5062691,30.4825805 21.3378436,31.1759251 C19.8716752,31.171687 18.445447,30.5436084 17.3609304,29.4086593 L17.3609304,29.4088712 Z M17.5859908,37.4399712 C17.1578477,37.3327486 16.7728147,37.1464864 16.546909,36.9920096 C16.7356216,36.9030106 17.071416,36.7818024 17.653826,36.6614419 C20.472259,36.0797699 20.9075872,35.669103 21.8581242,34.4589286 C22.0759996,34.1813365 22.3230378,33.8668733 22.6651719,33.4837539 L22.6655946,33.48333 C23.1750976,32.9111936 23.4081884,33.0082449 23.8308371,33.1841239 C24.1733939,33.3260985 24.5070751,33.7566841 24.6423227,34.2304978 C24.7063539,34.4542667 24.7782042,34.8789191 24.5430002,35.2094868 C22.5573965,37.9972744 19.6639433,37.9614629 17.5859908,37.4399712 L17.5859908,37.4399712 Z M32.3362201,51.2034543 C28.8882518,51.944265 27.6674309,50.1801777 26.8629191,48.1635028 C26.3436951,46.8615746 26.0884153,40.9906074 26.2695203,34.5070304 C26.2718448,34.4207862 26.259588,34.3375085 26.2359197,34.2591046 C26.2147479,34.1042825 26.1825442,33.9511798 26.1395558,33.8009717 C25.8703285,32.8575823 25.2141664,32.0684579 24.4269831,31.7412806 C24.1142231,31.6113845 23.5402661,31.3729943 22.8505034,31.5499328 C22.9975851,30.9421968 23.2526536,30.255845 23.5292772,29.5127033 L23.6452943,29.2001473 C23.7758928,28.8477537 23.9398805,28.4826459 24.1131665,28.096136 C25.0499674,26.0093214 26.3329176,23.1509702 24.9405013,16.6936691 C24.4189528,14.2750154 22.6772174,13.0938716 20.0369308,13.3682852 C18.4541113,13.5325095 17.0059055,14.1728785 16.2835988,14.5401053 C16.1282754,14.618933 15.9862654,14.6952178 15.8535537,14.7693837 C16.0551572,12.3325063 16.8167702,7.77830049 19.6658452,4.89685199 C21.4597777,3.08296766 23.8487997,2.18704442 26.7595814,2.23535816 C32.4949247,2.32944281 36.1728139,5.2808191 38.2484418,7.74036997 C40.0370912,9.85960563 41.0055907,11.9945221 41.392103,13.1459996 C38.4853364,12.8495481 36.508397,13.4248631 35.5062968,14.8615612 C33.3260634,17.9866974 36.6990115,24.052191 38.3200807,26.967332 C38.6174141,27.5015379 38.8739619,27.9632732 38.9546878,28.1594948 C39.4825761,29.4423517 40.165999,30.2988611 40.6649359,30.9239732 C40.8179347,31.1155329 40.9662844,31.3013713 41.0791316,31.4636885 C40.1987543,31.7181833 38.6174141,32.3062124 38.7615373,35.2455102 C38.6453089,36.7203507 37.8188193,43.6254015 37.3989178,46.0650336 C36.844614,49.2880687 35.6618316,50.4884957 32.3362201,51.2036662 L32.3362201,51.2034543 Z M46.7282545,34.6886308 C45.8280127,35.1075618 44.3214813,35.421813 42.8903927,35.4894098 C41.3096865,35.5635757 40.5049633,35.3118356 40.3156167,35.156935 C40.2268605,33.3252509 40.9066909,33.133903 41.6262504,32.9313244 C41.7393089,32.899539 41.8496202,32.8683894 41.9561277,32.8310945 C42.0222722,32.8851296 42.0947565,32.9387409 42.1742145,32.9912927 C43.4446965,33.8321214 45.7107277,33.9228156 48.9099672,33.2606206 L48.9450471,33.2536279 C48.5135227,33.6581495 47.7751554,34.2010434 46.7282545,34.6886308 Z" id="Shape"></path>
            </g>
        </g>
    </g>
</svg>