<?xml version="1.0" encoding="UTF-8"?>
<svg width="52px" height="46px" viewBox="0 0 52 46" version="1.1" xmlns="http://www.w3.org/2000/svg" xmlns:xlink="http://www.w3.org/1999/xlink">
    <!-- Generator: Sketch 44.1 (41455) - http://www.bohemiancoding.com/sketch -->
    <title>react-1</title>
    <desc>Created with Sketch.</desc>
    <defs></defs>
    <g id="Page-1" stroke="none" stroke-width="1" fill="none" fill-rule="evenodd">
        <g id="Desktop-HD" transform="translate(-379.000000, -1428.000000)">
            <g id="social-1_round-linkedin" transform="translate(359.000000, 1405.932110)">
                <g id="react-1" transform="translate(20.769231, 22.168544)">
                    <ellipse id="Oval" fill="#FFFFFF" fill-rule="nonzero" cx="24.8778213" cy="22.8246053" rx="4.56478719" ry="4.62791841"></ellipse>
                    <path d="M40.9903434,15.804729 C46.1615564,17.6094031 49.3415205,20.3454725 49.3415205,22.8230759 C49.3415205,25.4046774 45.9714826,28.312038 40.4186136,30.176358 C36.2203972,31.5864508 30.6946816,32.3236143 24.8778213,32.3236143 C18.9131258,32.3236143 13.2667284,31.6323324 9.02023934,30.1610642 C3.64839294,28.2998029 0.412613526,25.3557371 0.412613526,22.8230759 C0.412613526,20.3653545 3.44926806,17.6506965 8.54807199,15.8490812 C12.8564105,14.3273433 18.6898645,13.41583 24.8778213,13.41583 C31.0054371,13.41583 36.6985987,14.3074613 40.9903434,15.804729 Z" id="Shape" stroke="#FFFFFF" stroke-width="2"></path>
                    <path d="M16.7996866,18.1477466 C19.8604775,12.7658414 23.4673533,8.2113335 26.891698,5.19079851 C31.0175053,1.55086268 34.9441877,0.125476049 37.0606439,1.36274835 C39.2661029,2.65201974 40.067128,7.0642949 38.8859554,12.8744278 C37.9929104,17.2668209 35.8628775,22.4866112 32.9559559,27.5962859 C29.9766252,32.8344288 26.5643487,37.4485828 23.1867682,40.4431182 C18.9131258,44.2314044 14.7797758,45.6017331 12.6165555,44.3369319 C10.516693,43.1088359 9.7141594,39.0865539 10.7203435,33.7077075 C11.5711498,29.1593171 13.7072168,23.5816508 16.7996866,18.1477466 Z" id="Shape" stroke="#FFFFFF" stroke-width="2"></path>
                    <path d="M16.8072292,27.6069916 C13.7373872,22.2296746 11.6465759,16.7881235 10.7746503,12.2718501 C9.72471905,6.83029902 10.4669118,2.66884297 12.5818595,1.4285119 C14.7858099,0.134652358 18.9553644,1.63497885 23.3300778,5.57314471 C26.6382663,8.55085692 30.033949,13.0288956 32.9484133,18.1339821 C35.9367951,23.3675369 38.1769501,28.6683846 39.0473672,33.1296001 C40.1500967,38.7760888 39.2570518,43.0904833 37.0953399,44.3583433 C34.996986,45.5894981 31.1593063,44.2864622 27.065178,40.7153487 C23.6076458,37.6978725 19.9072417,33.0363076 16.8072292,27.6069916 Z" id="Shape" stroke="#FFFFFF" stroke-width="2"></path>
                </g>
            </g>
        </g>
    </g>
</svg>