<?xml version="1.0" encoding="UTF-8"?>
<svg width="80px" height="95px" viewBox="0 0 80 95" version="1.1" xmlns="http://www.w3.org/2000/svg" xmlns:xlink="http://www.w3.org/1999/xlink">
    <!-- Generator: Sketch 44.1 (41455) - http://www.bohemiancoding.com/sketch -->
    <title>soundcharts-logo</title>
    <desc>Created with Sketch.</desc>
    <defs></defs>
    <g id="Page-1" stroke="none" stroke-width="1" fill="none" fill-rule="evenodd">
        <g id="Desktop-HD" transform="translate(-1111.000000, -3492.000000)" fill-rule="nonzero" fill="#BABABA">
            <g id="soundcharts-logo" transform="translate(1111.000000, 3492.315347)">
                <path d="M55.5384615,0 C63.4145301,0 71.2905983,0 79.3290598,0 C79.3290598,22.536493 79.3290598,45.2368879 79.3290598,67.7733809 C78.3547007,67.7733809 77.542735,67.7733809 76.5683762,67.7733809 C76.5683762,62.11877 76.5683762,56.3822082 76.5683762,50.727597 C76.0811965,50.727597 75.5940171,50.727597 74.9444444,50.727597 C74.9444444,56.3822082 74.9444444,62.11877 74.9444444,67.7733809 C74.457265,67.7733809 74.1324787,67.7733809 73.8076923,67.7733809 C73.8076923,64.4953457 73.8076923,61.2992609 73.8076923,57.8573239 C73.3205129,57.8573239 72.6709402,57.8573239 72.1837608,57.8573239 C72.1837608,61.1353595 72.1837608,64.3314438 72.1837608,67.7733809 C71.6965811,67.7733809 71.3717948,67.7733809 71.0470084,67.7733809 C71.0470084,62.4465733 71.0470084,57.2017169 71.0470084,51.8749093 C70.559829,51.8749093 69.9102563,51.8749093 69.4230769,51.8749093 C69.4230769,57.2017169 69.4230769,62.4465733 69.4230769,67.7733809 C68.9358976,67.7733809 68.6111112,67.7733809 68.2863248,67.7733809 C68.2863248,63.5938857 68.2863248,59.168538 68.2863248,54.9890431 C67.7991455,54.9890431 67.3119657,54.9890431 66.662393,54.9890431 C66.662393,59.168538 66.662393,63.5938857 66.662393,67.7733809 C66.1752136,67.7733809 65.8504273,67.7733809 65.3632479,67.7733809 C65.3632479,64.4953457 65.3632479,61.2992609 65.3632479,57.8573239 C64.8760685,57.8573239 64.3888888,57.8573239 63.9017094,57.8573239 C63.9017094,61.1353595 63.9017094,64.3314438 63.9017094,67.7733809 C63.4145301,67.7733809 63.0897437,67.7733809 62.602564,67.7733809 C62.602564,62.7743769 62.602564,57.8573239 62.602564,52.8583202 C62.1153846,52.8583202 61.6282052,52.8583202 60.9786325,52.8583202 C60.9786325,57.8573239 60.9786325,62.7743769 60.9786325,67.7733809 C60.4914532,67.7733809 60.1666668,67.7733809 59.8418804,67.7733809 C59.8418804,62.11877 59.8418804,56.3822082 59.8418804,50.727597 C59.3547007,50.727597 58.7051283,50.727597 58.2179486,50.727597 C58.2179486,56.3822082 58.2179486,62.11877 58.2179486,67.7733809 C57.2435899,67.7733809 56.4316238,67.7733809 55.457265,67.7733809 C55.5384615,45.2368879 55.5384615,22.7003948 55.5384615,0 Z M27.8504273,29.9940235 C35.7264957,29.9940235 43.602564,29.9940235 51.4786325,29.9940235 C51.4786325,40.4017857 51.4786325,57.2017169 51.4786325,67.7733809 C50.6666668,67.7733809 49.6923077,67.7733809 48.880342,67.7733809 C48.880342,64.8231489 48.880342,61.9548682 48.880342,59.0046362 C48.3931622,59.0046362 47.9059829,59.0046362 47.2564101,59.0046362 C47.2564101,61.9548682 47.2564101,64.8231489 47.2564101,67.7733809 C46.9316238,67.7733809 46.4444444,67.7733809 46.119658,67.7733809 C46.119658,63.2660824 46.119658,58.5129311 46.119658,54.0056326 C45.6324787,54.0056326 44.9829059,54.0056326 44.4957266,54.0056326 C44.4957266,58.5129311 44.4957266,63.2660824 44.4957266,67.7733809 C44.0085468,67.7733809 43.6837608,67.7733809 43.3589745,67.7733809 C43.3589745,63.2660824 43.3589745,58.5129311 43.3589745,54.0056326 C42.8717948,54.0056326 42.2222224,54.0056326 41.7350427,54.0056326 C41.7350427,58.5129311 41.7350427,63.2660824 41.7350427,67.7733809 C41.2478633,67.7733809 40.9230769,67.7733809 40.4358976,67.7733809 C40.4358976,64.167542 40.4358976,60.643654 40.4358976,56.8739133 C39.9487178,56.8739133 39.4615385,56.8739133 38.9743591,56.8739133 C38.9743591,60.4797522 38.9743591,64.167542 38.9743591,67.7733809 C38.4871794,67.7733809 38.162393,67.7733809 37.6752136,67.7733809 C37.6752136,64.167542 37.6752136,60.643654 37.6752136,56.8739133 C37.1880343,56.8739133 36.5384615,56.8739133 36.0512821,56.8739133 C36.0512821,60.4797522 36.0512821,64.0036402 36.0512821,67.7733809 C35.7264957,67.7733809 35.2393162,67.7733809 34.9145299,67.7733809 C34.9145299,63.9216893 34.9145299,59.8241453 34.9145299,55.9724537 C34.4273504,55.9724537 33.9401709,55.9724537 33.2905983,55.9724537 C33.2905983,59.8241453 33.2905983,63.9216893 33.2905983,67.7733809 C32.8034188,67.7733809 32.4786325,67.7733809 32.1538462,67.7733809 C32.1538462,62.7743769 32.1538462,57.8573239 32.1538462,52.8583202 C31.6666667,52.8583202 31.017094,52.8583202 30.5299145,52.8583202 C30.5299145,57.693422 30.5299145,62.7743769 30.5299145,67.7733809 C29.5555556,67.7733809 28.7435898,67.7733809 27.7692308,67.7733809 C27.8504273,57.2017169 27.8504273,40.4017857 27.8504273,29.9940235 Z M21.1111111,50.727597 C20.6239316,50.727597 19.974359,50.727597 19.4871795,50.727597 C19.4871795,56.3822082 19.4871795,61.9548682 19.4871795,67.6094791 C19.1623931,67.6094791 18.6752137,67.6094791 18.3504273,67.6094791 C18.3504273,64.9870507 18.3504273,62.4465733 18.3504273,59.8241453 C17.8632479,59.8241453 17.2136752,59.8241453 16.7264957,59.8241453 C16.7264957,62.4465733 16.7264957,64.9870507 16.7264957,67.6094791 C16.2393162,67.6094791 15.9145299,67.6094791 15.4273504,67.6094791 C15.4273504,64.0036402 15.4273504,60.4797522 15.4273504,56.7100115 C14.9401709,56.7100115 14.4529915,56.7100115 13.965812,56.7100115 C13.965812,60.3158504 13.965812,63.8397384 13.965812,67.6094791 C13.4786325,67.6094791 13.1538462,67.6094791 12.6666667,67.6094791 C12.6666667,62.2826718 12.6666667,57.0378151 12.6666667,51.7110075 C12.1794872,51.7110075 11.6923077,51.7110075 11.042735,51.7110075 C11.042735,57.0378151 11.042735,62.2826718 11.042735,67.6094791 C10.5555556,67.6094791 10.2307692,67.6094791 9.9059829,67.6094791 C9.9059829,64.6592475 9.9059829,61.7909664 9.9059829,58.8407344 C9.41880343,58.8407344 8.76923077,58.8407344 8.28205129,58.8407344 C8.28205129,61.7909664 8.28205129,64.6592475 8.28205129,67.6094791 C7.79487178,67.6094791 7.47008545,67.6094791 7.14529916,67.6094791 C7.14529916,63.4299842 7.14529916,59.168538 7.14529916,54.8251413 C6.65811965,54.8251413 6.17094018,54.8251413 5.52136752,54.8251413 C5.52136752,59.0046362 5.52136752,63.2660824 5.52136752,67.6094791 C5.19658119,67.6094791 4.70940171,67.6094791 4.38461538,67.6094791 C4.38461538,62.7743769 4.38461538,57.693422 4.38461538,52.8583202 C3.89743591,52.8583202 3.24786325,52.8583202 2.76068376,52.8583202 C2.76068376,57.693422 2.76068376,62.7743769 2.76068376,67.6094791 C1.78632479,67.6094791 0.974358976,67.6094791 0,67.6094791 C0,60.8075558 0,52.3666148 0,45.4007897 C7.87606839,45.4007897 15.7521367,45.4007897 23.6282051,45.4007897 C23.6282051,52.202713 23.6282051,60.643654 23.6282051,67.6094791 C22.8162393,67.6094791 21.8418803,67.6094791 21.0299145,67.6094791 C21.1111111,62.11877 21.1111111,56.4641588 21.1111111,50.727597 Z M44.5769231,72.3626304 C45.0641024,72.3626304 45.5512822,72.3626304 46.0384615,72.3626304 C46.0384615,79.8201609 46.0384615,87.1137896 46.0384615,94.4074183 C45.5512822,94.4074183 45.0641024,94.4074183 44.5769231,94.4074183 C44.5769231,87.1137896 44.5769231,79.8201609 44.5769231,72.3626304 Z M61.1410255,72.3626304 C61.6282052,72.3626304 61.9529916,72.3626304 62.440171,72.3626304 C62.440171,79.6562591 62.440171,86.785986 62.440171,94.0796147 C61.9529916,94.0796147 61.6282052,94.0796147 61.1410255,94.0796147 C61.1410255,86.9498878 61.1410255,79.6562591 61.1410255,72.3626304 Z M31.9102564,93.5879092 C31.4230769,93.5879092 31.0982906,93.5879092 30.6111111,93.5879092 C30.6111111,86.4581823 30.6111111,79.4923572 30.6111111,72.3626304 C31.0982906,72.3626304 31.4230769,72.3626304 31.9102564,72.3626304 C31.9102564,79.4923572 31.9102564,86.4581823 31.9102564,93.5879092 Z M59.6794871,72.3626304 C59.6794871,79.4923572 59.6794871,86.4581823 59.6794871,93.5879092 C59.1923077,93.5879092 58.8675213,93.5879092 58.380342,93.5879092 C58.380342,86.6220841 58.380342,79.4923572 58.380342,72.3626304 C58.8675213,72.3626304 59.1923077,72.3626304 59.6794871,72.3626304 Z M41.8162392,72.3626304 C42.3034189,72.3626304 42.6282052,72.3626304 43.1153846,72.3626304 C43.1153846,79.1645536 43.1153846,86.1303791 43.1153846,92.9323023 C42.6282052,92.9323023 42.3034189,92.9323023 41.8162392,92.9323023 C41.8162392,86.1303791 41.8162392,79.3284554 41.8162392,72.3626304 Z M66.7435899,72.3626304 C67.2307692,72.3626304 67.5555556,72.3626304 68.042735,72.3626304 C68.042735,79.1645536 68.042735,85.9664772 68.042735,92.9323023 C67.5555556,92.9323023 67.2307692,92.9323023 66.7435899,92.9323023 C66.7435899,86.1303791 66.7435899,79.3284554 66.7435899,72.3626304 Z M27.8504273,72.3626304 C28.3376069,72.3626304 28.6623931,72.3626304 29.1495727,72.3626304 C29.1495727,78.8367503 29.1495727,85.1469681 29.1495727,91.6210881 C28.6623931,91.6210881 28.3376069,91.6210881 27.8504273,91.6210881 C27.8504273,85.31087 27.8504273,78.8367503 27.8504273,72.3626304 Z M70.8034189,91.4571863 C70.3162392,91.4571863 69.9914532,91.4571863 69.5042734,91.4571863 C69.5042734,85.1469681 69.5042734,78.8367503 69.5042734,72.3626304 C69.9914532,72.3626304 70.3162392,72.3626304 70.8034189,72.3626304 C70.8034189,78.6728485 70.8034189,85.1469681 70.8034189,91.4571863 Z M34.7521367,91.2932845 C34.2649573,91.2932845 33.9401709,91.2932845 33.4529915,91.2932845 C33.4529915,84.9830663 33.4529915,78.6728485 33.4529915,72.2806795 C33.9401709,72.2806795 34.2649573,72.2806795 34.7521367,72.2806795 C34.7521367,78.6728485 34.7521367,84.9830663 34.7521367,91.2932845 Z M51.4786325,91.1293827 C50.9914532,91.1293827 50.6666668,91.1293827 50.1794871,91.1293827 C50.1794871,84.8191649 50.1794871,78.6728485 50.1794871,72.2806795 C50.6666668,72.2806795 50.9914532,72.2806795 51.4786325,72.2806795 C51.4786325,78.6728485 51.4786325,84.9830663 51.4786325,91.1293827 Z M37.6752136,89.654267 C37.1880343,89.654267 36.7008545,89.654267 36.2136752,89.654267 C36.2136752,83.835754 36.2136752,78.1811431 36.2136752,72.2806795 C36.7008545,72.2806795 37.1880343,72.2806795 37.6752136,72.2806795 C37.6752136,78.1811431 37.6752136,83.9996558 37.6752136,89.654267 Z M76.4059829,90.4737758 C75.9188035,90.4737758 75.5940171,90.4737758 75.1068378,90.4737758 C75.1068378,84.4913612 75.1068378,78.3450449 75.1068378,72.2806795 C75.5940171,72.2806795 75.9188035,72.2806795 76.4059829,72.2806795 C76.4059829,78.5089467 76.4059829,84.4913612 76.4059829,90.4737758 Z M40.2735042,89.654267 C39.7863248,89.654267 39.4615385,89.654267 38.9743591,89.654267 C38.9743591,83.835754 38.9743591,78.1811431 38.9743591,72.2806795 C39.4615385,72.2806795 39.7863248,72.2806795 40.2735042,72.2806795 C40.2735042,78.1811431 40.2735042,83.9996558 40.2735042,89.654267 Z M55.5384615,72.3626304 C56.0256409,72.3626304 56.3504273,72.3626304 56.837607,72.3626304 C56.837607,78.1811431 56.837607,83.835754 56.837607,89.7362176 C56.3504273,89.7362176 56.0256409,89.7362176 55.5384615,89.7362176 C55.5384615,83.835754 55.5384615,78.1811431 55.5384615,72.3626304 Z M16.8076923,88.3430529 C16.8076923,83.0162452 16.8076923,77.6074871 16.8076923,72.2806795 C17.2948718,72.2806795 17.7820513,72.2806795 18.2692308,72.2806795 C18.2692308,77.6074871 18.2692308,83.0162452 18.2692308,88.3430529 C17.7820513,88.3430529 17.2948718,88.3430529 16.8076923,88.3430529 Z M63.9017094,88.179151 C63.9017094,82.8523434 63.9017094,77.6074871 63.9017094,72.2806795 C64.3888888,72.2806795 64.8760685,72.2806795 65.3632479,72.2806795 C65.3632479,77.4435853 65.3632479,82.8523434 65.3632479,88.179151 C64.7948717,88.179151 64.3888888,88.179151 63.9017094,88.179151 Z M11.3675214,72.3626304 C11.8547008,72.3626304 12.1794872,72.3626304 12.6666667,72.3626304 C12.6666667,77.8533394 12.6666667,83.4259998 12.6666667,89.0806107 C12.1794872,89.0806107 11.8547008,89.0806107 11.3675214,89.0806107 C11.3675214,83.5079507 11.3675214,78.0172413 11.3675214,72.3626304 Z M77.8675213,72.3626304 C78.3547007,72.3626304 78.8418804,72.3626304 79.3290598,72.3626304 C79.3290598,77.5255362 79.3290598,82.7703925 79.3290598,88.0972001 C78.8418804,88.0972001 78.3547007,88.0972001 77.8675213,88.0972001 C77.8675213,82.8523434 77.8675213,77.689438 77.8675213,72.3626304 Z M19.6495727,88.179151 C19.6495727,82.8523434 19.6495727,77.6074871 19.6495727,72.2806795 C20.1367521,72.2806795 20.4615385,72.2806795 20.9487179,72.2806795 C20.9487179,77.4435853 20.9487179,82.8523434 20.9487179,88.179151 C20.4615385,88.179151 20.1367521,88.179151 19.6495727,88.179151 Z M14.0470085,88.0152492 C14.0470085,82.8523434 14.0470085,77.4435853 14.0470085,72.2806795 C14.534188,72.2806795 14.8589744,72.2806795 15.3461538,72.2806795 C15.3461538,77.4435853 15.3461538,82.8523434 15.3461538,88.0152492 C15.0213675,88.0152492 14.534188,88.0152492 14.0470085,88.0152492 Z M73.6452993,88.0152492 C73.1581196,88.0152492 72.8333332,88.0152492 72.3461538,88.0152492 C72.3461538,82.8523434 72.3461538,77.6074871 72.3461538,72.2806795 C72.8333332,72.2806795 73.1581196,72.2806795 73.6452993,72.2806795 C73.6452993,77.5255362 73.6452993,82.8523434 73.6452993,88.0152492 Z M6.98290598,87.8513474 C6.4957265,87.8513474 6.17094018,87.8513474 5.6837607,87.8513474 C5.6837607,82.6884416 5.6837607,77.6074871 5.6837607,72.4445813 C6.17094018,72.4445813 6.4957265,72.4445813 6.98290598,72.4445813 C6.98290598,77.5255362 6.98290598,82.6884416 6.98290598,87.8513474 Z M4.22222224,86.9498878 C3.73504273,86.9498878 3.24786325,86.9498878 2.76068376,86.9498878 C2.76068376,82.1147856 2.76068376,77.1977325 2.76068376,72.3626304 C3.24786325,72.3626304 3.73504273,72.3626304 4.22222224,72.3626304 C4.22222224,77.1977325 4.22222224,82.0328347 4.22222224,86.9498878 Z M47.337607,72.3626304 C47.8247864,72.3626304 48.3119657,72.3626304 48.7991455,72.3626304 C48.7991455,77.0338307 48.7991455,81.786982 48.7991455,86.6220841 C48.3119657,86.6220841 47.8247864,86.6220841 47.337607,86.6220841 C47.337607,81.8689329 47.337607,77.1977325 47.337607,72.3626304 Z M23.8717949,87.2776914 C23.3846154,87.2776914 23.0598291,87.2776914 22.5726496,87.2776914 C22.5726496,82.2786874 22.5726496,77.3616343 22.5726496,72.3626304 C23.0598291,72.3626304 23.3846154,72.3626304 23.8717949,72.3626304 C23.8717949,77.3616343 23.8717949,82.1967365 23.8717949,87.2776914 Z M0.243589744,72.3626304 C0.730769231,72.3626304 1.05555556,72.3626304 1.54273504,72.3626304 C1.54273504,77.0338307 1.54273504,81.786982 1.54273504,86.4581823 C1.05555556,86.4581823 0.730769231,86.4581823 0.243589744,86.4581823 C0.243589744,81.7050311 0.243589744,77.0338307 0.243589744,72.3626304 Z M8.60683762,72.3626304 C9.0940171,72.3626304 9.41880343,72.3626304 9.9059829,72.3626304 C9.9059829,77.0338307 9.9059829,81.786982 9.9059829,86.4581823 C9.41880343,86.4581823 9.0940171,86.4581823 8.60683762,86.4581823 C8.60683762,81.7050311 8.60683762,77.0338307 8.60683762,72.3626304 Z"></path>
            </g>
        </g>
    </g>
</svg>