<?xml version="1.0" encoding="UTF-8"?>
<svg width="159px" height="26px" viewBox="0 0 159 26" version="1.1" xmlns="http://www.w3.org/2000/svg" xmlns:xlink="http://www.w3.org/1999/xlink">
    <!-- Generator: Sketch 44.1 (41455) - http://www.bohemiancoding.com/sketch -->
    <title>soundcharts-logo</title>
    <desc>Created with Sketch.</desc>
    <defs></defs>
    <g id="Page-1" stroke="none" stroke-width="1" fill="none" fill-rule="evenodd">
        <g id="Desktop-HD" transform="translate(-487.000000, -612.000000)" fill-rule="nonzero" fill="#BABABA">
            <g id="soundcharts-logo" transform="translate(487.346154, 612.406015)">
                <path d="M14.6153846,0 C16.6880342,0 18.7606837,0 20.8760684,0 C20.8760684,5.93065606 20.8760684,11.9044442 20.8760684,17.8351002 C20.6196581,17.8351002 20.4059829,17.8351002 20.1495727,17.8351002 C20.1495727,16.3470447 20.1495727,14.8374232 20.1495727,13.3493676 C20.0213675,13.3493676 19.8931624,13.3493676 19.7222222,13.3493676 C19.7222222,14.8374232 19.7222222,16.3470447 19.7222222,17.8351002 C19.5940171,17.8351002 19.508547,17.8351002 19.4230769,17.8351002 C19.4230769,16.9724594 19.4230769,16.1313845 19.4230769,15.2256115 C19.2948718,15.2256115 19.1239316,15.2256115 18.9957265,15.2256115 C18.9957265,16.0882525 18.9957265,16.9293273 18.9957265,17.8351002 C18.8675213,17.8351002 18.7820512,17.8351002 18.6965812,17.8351002 C18.6965812,16.4333088 18.6965812,15.0530834 18.6965812,13.6512919 C18.5683761,13.6512919 18.3974359,13.6512919 18.2692308,13.6512919 C18.2692308,15.0530834 18.2692308,16.4333088 18.2692308,17.8351002 C18.1410257,17.8351002 18.0555556,17.8351002 17.9700855,17.8351002 C17.9700855,16.7352331 17.9700855,15.5706679 17.9700855,14.4708008 C17.8418804,14.4708008 17.7136752,14.4708008 17.542735,14.4708008 C17.542735,15.5706679 17.542735,16.7352331 17.542735,17.8351002 C17.4145299,17.8351002 17.3290598,17.8351002 17.2008547,17.8351002 C17.2008547,16.9724594 17.2008547,16.1313845 17.2008547,15.2256115 C17.0726496,15.2256115 16.9444444,15.2256115 16.8162393,15.2256115 C16.8162393,16.0882525 16.8162393,16.9293273 16.8162393,17.8351002 C16.6880342,17.8351002 16.6025641,17.8351002 16.4743589,17.8351002 C16.4743589,16.5195729 16.4743589,15.2256115 16.4743589,13.9100843 C16.3461538,13.9100843 16.2179487,13.9100843 16.0470086,13.9100843 C16.0470086,15.2256115 16.0470086,16.5195729 16.0470086,17.8351002 C15.9188035,17.8351002 15.8333334,17.8351002 15.7478633,17.8351002 C15.7478633,16.3470447 15.7478633,14.8374232 15.7478633,13.3493676 C15.6196581,13.3493676 15.448718,13.3493676 15.3205128,13.3493676 C15.3205128,14.8374232 15.3205128,16.3470447 15.3205128,17.8351002 C15.0641026,17.8351002 14.8504273,17.8351002 14.5940171,17.8351002 C14.6153846,11.9044442 14.6153846,5.97378811 14.6153846,0 Z M7.32905983,7.89316408 C9.4017094,7.89316408 11.4743589,7.89316408 13.5470086,7.89316408 C13.5470086,10.6320489 13.5470086,15.0530834 13.5470086,17.8351002 C13.3333334,17.8351002 13.0769231,17.8351002 12.8632479,17.8351002 C12.8632479,17.0587234 12.8632479,16.3039127 12.8632479,15.5275358 C12.7350427,15.5275358 12.6068376,15.5275358 12.4358974,15.5275358 C12.4358974,16.3039127 12.4358974,17.0587234 12.4358974,17.8351002 C12.3504273,17.8351002 12.2222222,17.8351002 12.1367521,17.8351002 C12.1367521,16.648969 12.1367521,15.3981398 12.1367521,14.2120086 C12.008547,14.2120086 11.8376068,14.2120086 11.7094017,14.2120086 C11.7094017,15.3981398 11.7094017,16.648969 11.7094017,17.8351002 C11.5811965,17.8351002 11.4957265,17.8351002 11.4102564,17.8351002 C11.4102564,16.648969 11.4102564,15.3981398 11.4102564,14.2120086 C11.2820513,14.2120086 11.1111112,14.2120086 10.982906,14.2120086 C10.982906,15.3981398 10.982906,16.648969 10.982906,17.8351002 C10.8547009,17.8351002 10.7692308,17.8351002 10.6410257,17.8351002 C10.6410257,16.8861953 10.6410257,15.9588563 10.6410257,14.9668193 C10.5128205,14.9668193 10.3846154,14.9668193 10.2564103,14.9668193 C10.2564103,15.9157243 10.2564103,16.8861953 10.2564103,17.8351002 C10.1282051,17.8351002 10.042735,17.8351002 9.9145299,17.8351002 C9.9145299,16.8861953 9.9145299,15.9588563 9.9145299,14.9668193 C9.78632481,14.9668193 9.61538462,14.9668193 9.48717949,14.9668193 C9.48717949,15.9157243 9.48717949,16.8430632 9.48717949,17.8351002 C9.4017094,17.8351002 9.27350427,17.8351002 9.18803419,17.8351002 C9.18803419,16.8214972 9.18803419,15.7431961 9.18803419,14.7295931 C9.05982906,14.7295931 8.93162393,14.7295931 8.76068376,14.7295931 C8.76068376,15.7431961 8.76068376,16.8214972 8.76068376,17.8351002 C8.63247863,17.8351002 8.54700855,17.8351002 8.46153846,17.8351002 C8.46153846,16.5195729 8.46153846,15.2256115 8.46153846,13.9100843 C8.33333334,13.9100843 8.16239316,13.9100843 8.03418804,13.9100843 C8.03418804,15.1824795 8.03418804,16.5195729 8.03418804,17.8351002 C7.77777778,17.8351002 7.56410257,17.8351002 7.30769231,17.8351002 C7.32905983,15.0530834 7.32905983,10.6320489 7.32905983,7.89316408 Z M5.55555556,13.3493676 C5.42735042,13.3493676 5.25641026,13.3493676 5.12820513,13.3493676 C5.12820513,14.8374232 5.12820513,16.3039127 5.12820513,17.7919682 C5.04273504,17.7919682 4.91452991,17.7919682 4.82905983,17.7919682 C4.82905983,17.1018555 4.82905983,16.4333088 4.82905983,15.7431961 C4.7008547,15.7431961 4.52991453,15.7431961 4.4017094,15.7431961 C4.4017094,16.4333088 4.4017094,17.1018555 4.4017094,17.7919682 C4.27350427,17.7919682 4.18803419,17.7919682 4.05982906,17.7919682 C4.05982906,16.8430632 4.05982906,15.9157243 4.05982906,14.9236872 C3.93162393,14.9236872 3.80341881,14.9236872 3.67521367,14.9236872 C3.67521367,15.8725922 3.67521367,16.7999312 3.67521367,17.7919682 C3.54700855,17.7919682 3.46153846,17.7919682 3.33333334,17.7919682 C3.33333334,16.3901768 3.33333334,15.0099513 3.33333334,13.6081599 C3.2051282,13.6081599 3.07692308,13.6081599 2.9059829,13.6081599 C2.9059829,15.0099513 2.9059829,16.3901768 2.9059829,17.7919682 C2.77777778,17.7919682 2.69230769,17.7919682 2.60683761,17.7919682 C2.60683761,17.0155914 2.60683761,16.2607806 2.60683761,15.4844038 C2.47863248,15.4844038 2.30769231,15.4844038 2.17948718,15.4844038 C2.17948718,16.2607806 2.17948718,17.0155914 2.17948718,17.7919682 C2.05128205,17.7919682 1.96581196,17.7919682 1.88034188,17.7919682 C1.88034188,16.6921011 1.88034188,15.5706679 1.88034188,14.4276688 C1.75213675,14.4276688 1.62393163,14.4276688 1.45299145,14.4276688 C1.45299145,15.5275358 1.45299145,16.648969 1.45299145,17.7919682 C1.36752137,17.7919682 1.23931624,17.7919682 1.15384615,17.7919682 C1.15384615,16.5195729 1.15384615,15.1824795 1.15384615,13.9100843 C1.02564103,13.9100843 0.854700855,13.9100843 0.726495727,13.9100843 C0.726495727,15.1824795 0.726495727,16.5195729 0.726495727,17.7919682 C0.47008547,17.7919682 0.256410257,17.7919682 0,17.7919682 C0,16.0019884 0,13.7806881 0,11.9475762 C2.07264958,11.9475762 4.14529914,11.9475762 6.21794872,11.9475762 C6.21794872,13.737556 6.21794872,15.9588563 6.21794872,17.7919682 C6.0042735,17.7919682 5.74786325,17.7919682 5.53418804,17.7919682 C5.55555556,16.3470447 5.55555556,14.8589891 5.55555556,13.3493676 Z M11.7307692,19.0427975 C11.8589743,19.0427975 11.9871795,19.0427975 12.1153846,19.0427975 C12.1153846,21.0053055 12.1153846,22.9246815 12.1153846,24.8440574 C11.9871795,24.8440574 11.8589743,24.8440574 11.7307692,24.8440574 C11.7307692,22.9246815 11.7307692,21.0053055 11.7307692,19.0427975 Z M16.0897436,19.0427975 C16.2179488,19.0427975 16.3034188,19.0427975 16.4316239,19.0427975 C16.4316239,20.9621734 16.4316239,22.8384174 16.4316239,24.7577933 C16.3034188,24.7577933 16.2179488,24.7577933 16.0897436,24.7577933 C16.0897436,22.8815494 16.0897436,20.9621734 16.0897436,19.0427975 Z M8.39743589,24.6283972 C8.26923077,24.6283972 8.18376068,24.6283972 8.05555556,24.6283972 C8.05555556,22.7521532 8.05555556,20.9190414 8.05555556,19.0427975 C8.18376068,19.0427975 8.26923077,19.0427975 8.39743589,19.0427975 C8.39743589,20.9190414 8.39743589,22.7521532 8.39743589,24.6283972 Z M15.7051282,19.0427975 C15.7051282,20.9190414 15.7051282,22.7521532 15.7051282,24.6283972 C15.5769231,24.6283972 15.491453,24.6283972 15.3632479,24.6283972 C15.3632479,22.7952853 15.3632479,20.9190414 15.3632479,19.0427975 C15.491453,19.0427975 15.5769231,19.0427975 15.7051282,19.0427975 Z M11.0042735,19.0427975 C11.1324787,19.0427975 11.2179487,19.0427975 11.3461538,19.0427975 C11.3461538,20.8327773 11.3461538,22.6658892 11.3461538,24.455869 C11.2179487,24.455869 11.1324787,24.455869 11.0042735,24.455869 C11.0042735,22.6658892 11.0042735,20.8759093 11.0042735,19.0427975 Z M17.5641026,19.0427975 C17.6923077,19.0427975 17.7777778,19.0427975 17.9059829,19.0427975 C17.9059829,20.8327773 17.9059829,22.6227572 17.9059829,24.455869 C17.7777778,24.455869 17.6923077,24.455869 17.5641026,24.455869 C17.5641026,22.6658892 17.5641026,20.8759093 17.5641026,19.0427975 Z M7.32905983,19.0427975 C7.45726496,19.0427975 7.54273504,19.0427975 7.67094017,19.0427975 C7.67094017,20.7465132 7.67094017,22.4070969 7.67094017,24.1108127 C7.54273504,24.1108127 7.45726496,24.1108127 7.32905983,24.1108127 C7.32905983,22.4502289 7.32905983,20.7465132 7.32905983,19.0427975 Z M18.6324787,24.0676806 C18.5042735,24.0676806 18.4188035,24.0676806 18.2905983,24.0676806 C18.2905983,22.4070969 18.2905983,20.7465132 18.2905983,19.0427975 C18.4188035,19.0427975 18.5042735,19.0427975 18.6324787,19.0427975 C18.6324787,20.7033812 18.6324787,22.4070969 18.6324787,24.0676806 Z M9.14529914,24.0245486 C9.01709402,24.0245486 8.93162393,24.0245486 8.80341881,24.0245486 C8.80341881,22.3639648 8.80341881,20.7033812 8.80341881,19.0212314 C8.93162393,19.0212314 9.01709402,19.0212314 9.14529914,19.0212314 C9.14529914,20.7033812 9.14529914,22.3639648 9.14529914,24.0245486 Z M13.5470086,23.9814165 C13.4188035,23.9814165 13.3333334,23.9814165 13.2051282,23.9814165 C13.2051282,22.3208329 13.2051282,20.7033812 13.2051282,19.0212314 C13.3333334,19.0212314 13.4188035,19.0212314 13.5470086,19.0212314 C13.5470086,20.7033812 13.5470086,22.3639648 13.5470086,23.9814165 Z M9.9145299,23.5932282 C9.78632481,23.5932282 9.65811962,23.5932282 9.52991453,23.5932282 C9.52991453,22.0620405 9.52991453,20.573985 9.52991453,19.0212314 C9.65811962,19.0212314 9.78632481,19.0212314 9.9145299,19.0212314 C9.9145299,20.573985 9.9145299,22.1051726 9.9145299,23.5932282 Z M20.1068376,23.8088884 C19.9786325,23.8088884 19.8931624,23.8088884 19.7649573,23.8088884 C19.7649573,22.2345687 19.7649573,20.6171171 19.7649573,19.0212314 C19.8931624,19.0212314 19.9786325,19.0212314 20.1068376,19.0212314 C20.1068376,20.6602491 20.1068376,22.2345687 20.1068376,23.8088884 Z M10.5982906,23.5932282 C10.4700855,23.5932282 10.3846154,23.5932282 10.2564103,23.5932282 C10.2564103,22.0620405 10.2564103,20.573985 10.2564103,19.0212314 C10.3846154,19.0212314 10.4700855,19.0212314 10.5982906,19.0212314 C10.5982906,20.573985 10.5982906,22.1051726 10.5982906,23.5932282 Z M14.6153846,19.0427975 C14.7435897,19.0427975 14.8290598,19.0427975 14.957265,19.0427975 C14.957265,20.573985 14.957265,22.0620405 14.957265,23.6147941 C14.8290598,23.6147941 14.7435897,23.6147941 14.6153846,23.6147941 C14.6153846,22.0620405 14.6153846,20.573985 14.6153846,19.0427975 Z M4.42307692,23.2481718 C4.42307692,21.8463803 4.42307692,20.4230229 4.42307692,19.0212314 C4.55128205,19.0212314 4.67948718,19.0212314 4.80769231,19.0212314 C4.80769231,20.4230229 4.80769231,21.8463803 4.80769231,23.2481718 C4.67948718,23.2481718 4.55128205,23.2481718 4.42307692,23.2481718 Z M16.8162393,23.2050397 C16.8162393,21.8032483 16.8162393,20.4230229 16.8162393,19.0212314 C16.9444444,19.0212314 17.0726496,19.0212314 17.2008547,19.0212314 C17.2008547,20.3798909 17.2008547,21.8032483 17.2008547,23.2050397 C17.051282,23.2050397 16.9444444,23.2050397 16.8162393,23.2050397 Z M2.99145299,19.0427975 C3.11965812,19.0427975 3.2051282,19.0427975 3.33333334,19.0427975 C3.33333334,20.4877209 3.33333334,21.9542105 3.33333334,23.442266 C3.2051282,23.442266 3.11965812,23.442266 2.99145299,23.442266 C2.99145299,21.9757765 2.99145299,20.530853 2.99145299,19.0427975 Z M20.491453,19.0427975 C20.6196581,19.0427975 20.7478633,19.0427975 20.8760684,19.0427975 C20.8760684,20.4014569 20.8760684,21.7816822 20.8760684,23.1834737 C20.7478633,23.1834737 20.6196581,23.1834737 20.491453,23.1834737 C20.491453,21.8032483 20.491453,20.4445889 20.491453,19.0427975 Z M5.17094017,23.2050397 C5.17094017,21.8032483 5.17094017,20.4230229 5.17094017,19.0212314 C5.2991453,19.0212314 5.38461538,19.0212314 5.51282051,19.0212314 C5.51282051,20.3798909 5.51282051,21.8032483 5.51282051,23.2050397 C5.38461538,23.2050397 5.2991453,23.2050397 5.17094017,23.2050397 Z M3.69658119,23.1619077 C3.69658119,21.8032483 3.69658119,20.3798909 3.69658119,19.0212314 C3.82478633,19.0212314 3.91025641,19.0212314 4.03846154,19.0212314 C4.03846154,20.3798909 4.03846154,21.8032483 4.03846154,23.1619077 C3.95299145,23.1619077 3.82478633,23.1619077 3.69658119,23.1619077 Z M19.3803419,23.1619077 C19.2521367,23.1619077 19.1666666,23.1619077 19.0384615,23.1619077 C19.0384615,21.8032483 19.0384615,20.4230229 19.0384615,19.0212314 C19.1666666,19.0212314 19.2521367,19.0212314 19.3803419,19.0212314 C19.3803419,20.4014569 19.3803419,21.8032483 19.3803419,23.1619077 Z M1.83760684,23.1187756 C1.70940171,23.1187756 1.62393163,23.1187756 1.4957265,23.1187756 C1.4957265,21.7601162 1.4957265,20.4230229 1.4957265,19.0643635 C1.62393163,19.0643635 1.70940171,19.0643635 1.83760684,19.0643635 C1.83760684,20.4014569 1.83760684,21.7601162 1.83760684,23.1187756 Z M1.11111112,22.8815494 C0.982905981,22.8815494 0.854700855,22.8815494 0.726495727,22.8815494 C0.726495727,21.6091541 0.726495727,20.3151928 0.726495727,19.0427975 C0.854700855,19.0427975 0.982905981,19.0427975 1.11111112,19.0427975 C1.11111112,20.3151928 1.11111112,21.5875881 1.11111112,22.8815494 Z M12.457265,19.0427975 C12.5854701,19.0427975 12.7136752,19.0427975 12.8418804,19.0427975 C12.8418804,20.2720607 12.8418804,21.52289 12.8418804,22.7952853 C12.7136752,22.7952853 12.5854701,22.7952853 12.457265,22.7952853 C12.457265,21.544456 12.457265,20.3151928 12.457265,19.0427975 Z M6.28205128,22.9678135 C6.15384615,22.9678135 6.06837607,22.9678135 5.94017094,22.9678135 C5.94017094,21.6522862 5.94017094,20.3583248 5.94017094,19.0427975 C6.06837607,19.0427975 6.15384615,19.0427975 6.28205128,19.0427975 C6.28205128,20.3583248 6.28205128,21.6307201 6.28205128,22.9678135 Z M0.0641025641,19.0427975 C0.192307692,19.0427975 0.277777778,19.0427975 0.405982906,19.0427975 C0.405982906,20.2720607 0.405982906,21.52289 0.405982906,22.7521532 C0.277777778,22.7521532 0.192307692,22.7521532 0.0641025641,22.7521532 C0.0641025641,21.501324 0.0641025641,20.2720607 0.0641025641,19.0427975 Z M2.26495727,19.0427975 C2.39316239,19.0427975 2.47863248,19.0427975 2.60683761,19.0427975 C2.60683761,20.2720607 2.60683761,21.52289 2.60683761,22.7521532 C2.47863248,22.7521532 2.39316239,22.7521532 2.26495727,22.7521532 C2.26495727,21.501324 2.26495727,20.2720607 2.26495727,19.0427975 Z M26.4368728,18.9373804 C27.5304601,19.5934097 29.1373638,20.1401008 30.8558581,20.1401008 C33.3778042,20.1401008 34.8284812,18.8499098 34.8284812,16.9474247 C34.8284812,15.2198807 33.8018483,14.2139691 31.257584,13.2299251 C28.1553671,12.1584104 26.2136917,10.5839401 26.2136917,7.95982268 C26.2136917,5.05142593 28.6910016,2.88652911 32.3511712,2.88652911 C34.2928466,2.88652911 35.6988874,3.323882 36.5469755,3.80497018 L35.8774323,5.75119057 C35.2525253,5.40130825 33.9803932,4.87648478 32.2618988,4.87648478 C29.6506803,4.87648478 28.6910016,6.38535227 28.6910016,7.69741095 C28.6910016,9.42495489 29.8292252,10.2996607 32.4850799,11.2837047 C35.6988874,12.4864251 37.3504273,14.0171603 37.3504273,16.7724835 C37.3504273,19.6808803 35.185571,22.1300565 30.6773133,22.1300565 C28.8249103,22.1300565 26.8385987,21.605233 25.8119658,20.9710713 L26.4368728,18.9373804 Z M51.7735042,15.2895839 C51.7735042,20.0463433 48.2617986,22.1300565 44.9076694,22.1300565 C41.1708544,22.1300565 38.3119658,19.5832959 38.3119658,15.5000599 C38.3119658,11.1642527 41.3509419,8.65958732 45.1327787,8.65958732 C49.0947032,8.68063492 51.7735042,11.3747288 51.7735042,15.2895839 Z M40.8106795,15.4158695 C40.8106795,18.2572966 42.5440213,20.3620574 44.9977132,20.3620574 C47.4063831,20.3620574 49.1847469,18.236249 49.1847469,15.3737743 C49.1847469,13.2058707 48.0366892,10.4275864 45.042735,10.4275864 C42.0938027,10.4275864 40.8106795,12.9953946 40.8106795,15.4158695 Z M65.1021622,18.2752322 C65.1021622,19.6244208 65.1464557,20.8236993 65.2350427,21.8302368 L63.0425136,21.8302368 L62.909633,19.6672521 L62.8653395,19.6672521 C62.2009367,20.7166209 60.8056909,22.1300565 58.3916941,22.1300565 C56.2434585,22.1300565 53.6965812,20.9950249 53.6965812,16.3692358 L53.6965812,8.70241869 L56.1548714,8.70241869 L56.1548714,15.940922 C56.1548714,18.4465577 56.9521548,20.0955659 59.1889775,20.0955659 C60.8499844,20.0955659 62.0016159,19.0033657 62.4224043,17.9325812 C62.5552849,17.5899301 62.6438719,17.118785 62.6438719,16.7118868 L62.6438719,8.65958732 L65.1021622,8.65958732 L65.1021622,18.2752322 Z M66.3284493,12.5144116 C66.3284493,11.165223 66.2844933,10.0516072 66.1965812,8.95940698 L68.3724054,8.95940698 L68.5042735,11.1223917 L68.5482295,11.1223917 C69.2075702,9.90169735 70.7680098,8.65958732 72.98779,8.65958732 C74.8559218,8.65958732 77.7350427,9.75178749 77.7350427,14.2490825 L77.7350427,22.0872251 L75.2954823,22.0872251 L75.2954823,14.5489021 C75.2954823,12.4287488 74.4603175,10.6940779 72.1746032,10.6940779 C70.5702076,10.6940779 69.2954823,11.786278 68.921856,13.1568823 C68.7899878,13.456702 68.7460317,13.8850157 68.7460317,14.2490825 L68.7460317,22.1300565 L66.3064713,22.1300565 L66.3064713,12.5144116 L66.3284493,12.5144116 Z M92.0288145,2.88652911 L92.0288145,18.5007948 C92.0288145,19.6191138 92.0719162,20.9695367 92.1581196,21.8346515 L89.981483,21.8346515 L89.8521778,19.576913 L89.8090762,19.576913 C89.0763469,21.0328378 87.4600326,22.1300565 85.2833959,22.1300565 C82.0938688,22.1300565 79.6586219,19.4925116 79.6586219,15.5678449 C79.6155202,11.2633717 82.3524792,8.64692711 85.5851079,8.64692711 C87.5893377,8.64692711 88.9470418,9.5753429 89.5504659,10.6092605 L89.5935675,10.6092605 L89.5935675,2.88652911 L92.0288145,2.88652911 Z M89.6366692,14.1541208 C89.6366692,13.8587158 89.5935675,13.4367086 89.5073641,13.162404 C89.1625504,11.6642784 87.847948,10.4404576 86.0592268,10.4404576 C83.5808781,10.4404576 82.0938688,12.5715939 82.0938688,15.4412427 C82.0938688,18.0787876 83.4084712,20.2099238 85.9730234,20.2099238 C87.5893377,20.2099238 89.0332452,19.1760063 89.4642624,17.4035761 C89.5504659,17.0659703 89.5935675,16.7705653 89.5935675,16.4118592 L89.5935675,14.1541208 L89.6366692,14.1541208 Z M104.636176,21.3699673 C103.977862,21.7077847 102.5954,22.1300565 100.774062,22.1300565 C96.736399,22.1300565 94.0811965,19.490858 94.0811965,15.5215034 C94.0811965,11.5521489 96.91195,8.65958732 101.278771,8.65958732 C102.705119,8.65958732 104.021749,8.99740473 104.658119,9.33522214 L104.08758,11.1298771 C103.51704,10.7920597 102.573457,10.4964695 101.256827,10.4964695 C98.1846913,10.4964695 96.5169606,12.671169 96.5169606,15.3948219 C96.5169606,18.3929514 98.513849,20.2509471 101.169052,20.2509471 C102.551513,20.2509471 103.473153,19.9131298 104.175356,19.6175395 L104.636176,21.3699673 Z M105.619658,2.88652911 L108.077948,2.88652911 L108.077948,11.0908008 L108.122242,11.0908008 C108.520884,10.403532 109.140993,9.82364888 109.871836,9.39410589 C110.602679,8.96456287 111.444256,8.70683705 112.418713,8.70683705 C114.256894,8.70683705 117.158119,9.80217175 117.158119,14.3123735 L117.158119,22.1300565 L114.69983,22.1300565 L114.69983,14.5700993 C114.69983,12.4438613 113.858253,10.6612578 111.554989,10.6612578 C109.982569,10.6612578 108.698058,11.7565925 108.277269,13.0452216 C108.144388,13.388856 108.100095,13.7324904 108.100095,14.1835105 L108.100095,22.1300565 L105.641805,22.1300565 L105.641805,2.88652911 L105.619658,2.88652911 Z M127.490717,21.83539 L127.317325,20.2147241 L127.230629,20.2147241 C126.493712,21.2039617 125.041553,22.1300565 123.155912,22.1300565 C120.44666,22.1300565 119.081196,20.2989146 119.081196,18.4256775 C119.081196,15.3106315 121.963841,13.5847276 127.057237,13.6268228 L127.057237,13.3321563 C127.057237,12.2587283 126.753801,10.343396 124.044548,10.343396 C122.809129,10.343396 121.508687,10.7222529 120.576704,11.3115859 L120.01318,9.77511054 C121.118555,9.05949187 122.722433,8.65958732 124.391332,8.65958732 C128.466048,8.65958732 129.44138,11.3747288 129.44138,13.9425369 L129.44138,18.7834868 C129.44138,19.89901 129.484728,20.9934856 129.658119,21.8564376 L127.490717,21.83539 Z M127.143933,15.2474886 C124.521376,15.2053934 121.530362,15.6684408 121.530362,18.1731062 C121.530362,19.6674863 122.54904,20.4252002 123.806134,20.4252002 C125.518382,20.4252002 126.645431,19.3517722 127.013888,18.2572966 C127.100585,18.0047253 127.143933,17.752154 127.143933,17.4995827 L127.143933,15.2474886 Z M131.711891,13.1065691 C131.711891,11.5738716 131.668326,10.1922849 131.581196,8.96180938 L133.694091,8.96180938 L133.781221,11.5738716 L133.911916,11.5738716 C134.521824,9.78212645 135.981246,8.65958732 137.614928,8.65958732 C137.876317,8.65958732 138.094141,8.70276189 138.311965,8.74593648 L138.311965,11.0126019 C138.050577,10.9694274 137.789188,10.9262528 137.484234,10.9262528 C135.763422,10.9262528 134.543607,12.1999029 134.260435,13.9916481 C134.21687,14.3370446 134.12974,14.7256159 134.12974,15.0925998 L134.12974,22.1300565 L131.711891,22.1300565 L131.711891,13.1065691 Z M144.55538,4.81088184 L144.55538,8.61634344 L147.92735,8.61634344 L147.92735,10.4542084 L144.55538,10.4542084 L144.55538,17.5894489 C144.55538,19.2110944 145.019026,20.1624599 146.304589,20.1624599 C146.936834,20.1624599 147.379405,20.0759721 147.674453,19.9894843 L147.800902,21.7841054 C147.337256,21.9570809 146.641787,22.1300565 145.714495,22.1300565 C144.639679,22.1300565 143.754537,21.7841054 143.164442,21.1138252 C142.490048,20.3786793 142.23715,19.2327164 142.23715,17.6543147 L142.23715,10.4325864 L140.235042,10.4325864 L140.235042,8.59472149 L142.23715,8.59472149 L142.23715,5.45954007 L144.55538,4.81088184 Z M150.517763,19.5290083 C151.249681,19.9942364 152.476719,20.4594646 153.660703,20.4594646 C155.404388,20.4594646 156.222413,19.6135952 156.222413,18.5351118 C156.222413,17.4143349 155.53355,16.7799329 153.746811,16.145531 C151.357316,15.2996616 150.25944,14.0097109 150.25944,12.4659994 C150.25944,10.3724727 151.960071,8.65958732 154.82316,8.65958732 C156.136306,8.65958732 157.341816,9.04022852 158.052207,9.46316319 L157.449452,11.1760486 C156.932804,10.8377009 155.964089,10.4147662 154.758579,10.4147662 C153.359325,10.4147662 152.5413,11.2183421 152.5413,12.169945 C152.5413,13.2484285 153.359325,13.7136566 155.059957,14.3480586 C157.363343,15.1939279 158.504273,16.3147048 158.504273,18.2390576 C158.504273,20.501758 156.717534,22.1300565 153.553068,22.1300565 C152.110761,22.1300565 150.776087,21.7917087 149.850427,21.2418937 L150.517763,19.5290083 Z"></path>
            </g>
        </g>
    </g>
</svg>