<?xml version="1.0" encoding="UTF-8"?>
<svg width="44px" height="46px" viewBox="0 0 44 46" version="1.1" xmlns="http://www.w3.org/2000/svg" xmlns:xlink="http://www.w3.org/1999/xlink">
    <!-- Generator: Sketch 44.1 (41455) - http://www.bohemiancoding.com/sketch -->
    <title>symfony</title>
    <desc>Created with Sketch.</desc>
    <defs></defs>
    <g id="Page-1" stroke="none" stroke-width="1" fill="none" fill-rule="evenodd">
        <g id="Desktop-HD" transform="translate(-1013.000000, -1425.000000)" fill-rule="nonzero" fill="#FFFFFF">
            <g id="symfony" transform="translate(1013.000000, 1425.945378)">
                <path d="M37.1137027,0.00562602468 C33.703238,0.123536567 30.726632,1.98641903 28.5108542,4.56327195 C26.0573996,7.38870007 24.4251774,10.7399103 23.249137,14.1606175 C21.1455007,12.4518256 19.5224703,10.2396364 16.1474602,9.27500847 C13.5387936,8.53266659 10.7988138,8.83928606 8.27917742,10.6998259 C7.08554105,11.5835043 6.26325823,12.9193032 5.87220772,14.1749333 C4.85978348,17.4381662 6.93663196,20.3422013 7.8799855,21.3849157 L9.94238954,23.575501 C10.3675815,24.0049765 11.3915613,25.1255171 10.8909956,26.7320157 C10.3499855,28.4785493 8.22533903,29.6095015 6.04606631,28.9431637 C5.07277338,28.6490381 3.67455116,27.9303824 3.98760166,26.918382 C4.11707641,26.5045238 4.4159451,26.1947809 4.57614712,25.8368847 C4.72321782,25.5294843 4.79333903,25.298869 4.8379855,25.1635192 C5.23612691,23.8750927 4.69222792,22.1988369 3.29978348,21.7732657 C2.00083398,21.3786688 0.671682469,21.6912749 0.156409742,23.3490503 C-0.427933693,25.2322352 0.481278428,28.6500793 5.3519451,30.138407 C11.0585512,31.8760909 15.8858845,28.7966215 16.5705512,24.7801147 C17.0017835,22.2644295 15.8556825,20.3955604 13.7559855,17.9917991 L12.045238,16.1166831 C11.0089148,15.0906271 10.6530562,13.3417509 11.7256219,11.9976228 C12.630632,10.8638075 13.9196017,10.3799318 16.0305916,10.9489217 C19.1119855,11.7781998 20.4855209,13.8972059 22.7774602,15.606258 C21.8312178,18.6826039 21.212733,21.7704025 20.6528138,24.5393481 L20.3116623,26.6036936 C18.6733996,35.120583 17.4227734,39.7971806 14.1727734,42.4820531 C13.5180461,42.943544 12.5820461,43.6343488 11.1712178,43.6825021 C10.4316623,43.7051472 10.1926724,43.200969 10.1824299,42.9812858 C10.164834,42.4666961 10.6023693,42.230875 10.8930966,41.9992185 C11.3274804,41.7644386 11.9843087,41.3750475 11.9396623,40.1274863 C11.8923895,38.6532141 10.6601471,37.3749388 8.8790158,37.4335037 C7.54487439,37.4785335 5.51135924,38.7229713 5.58778348,41.0007531 C5.66735924,43.3534979 7.8799855,45.11669 11.2158643,45.0050264 C12.9990966,44.9443792 16.981036,44.2249427 20.9054602,39.6014439 C25.4730562,34.3014561 26.7504703,28.2255492 27.7114198,23.7785258 L28.7839855,17.9074657 C29.3798845,17.9782641 30.0170158,18.0253763 30.7100865,18.0417744 C36.398834,18.1607261 39.2443895,15.2402928 39.2866724,13.116081 C39.3147734,11.8305178 38.4355007,10.5655172 37.2045714,10.5941489 C36.3234602,10.6188763 35.2164905,11.2000998 34.9507128,12.4078369 C34.691238,13.5926687 36.7609956,14.6619325 35.1432178,15.7004823 C33.9939653,16.4376184 31.9336623,16.9571536 29.0321673,16.5349662 L29.5597835,13.6449866 C30.6365512,8.16461912 31.9646522,1.42341571 37.0028744,1.25943416 C37.3700259,1.2409537 38.7136219,1.27583231 38.7448744,2.1563872 C38.7540663,2.45051284 38.680531,2.52547583 38.3330764,3.19884134 C37.9793188,3.72384259 37.8459047,4.17075738 37.8624501,4.68430595 C37.911036,6.08361517 38.9846522,7.00321329 40.5372986,6.9477719 C42.6162481,6.88113813 43.2142481,4.87509718 43.1801067,3.84487659 C43.0960663,1.42419657 40.5218037,-0.104996449 37.11344,0.00562602468 L37.1137027,0.00562602468 Z" id="Shape"></path>
            </g>
        </g>
    </g>
</svg>